<?xml version="1.0" encoding="UTF-8"?>
<svg xmlns="http://www.w3.org/2000/svg" xmlns:xlink="http://www.w3.org/1999/xlink"
     width="800" height="200.0" viewBox="0 0 800 200.0">
<defs>
</defs>
<path d="M38.75,100.0 L581.25,100.0" stroke="#aaaaaa" stroke-width="3" />
<path d="M38.75,120.0 L38.75,80.0" stroke="#aaaaaa" stroke-width="1.5" />
<path d="M116.25,120.0 L116.25,80.0" stroke="#aaaaaa" stroke-width="1.5" />
<path d="M193.75,120.0 L193.75,80.0" stroke="#aaaaaa" stroke-width="1.5" />
<path d="M271.25,120.0 L271.25,80.0" stroke="#aaaaaa" stroke-width="1.5" />
<path d="M348.75,120.0 L348.75,80.0" stroke="#aaaaaa" stroke-width="1.5" />
<path d="M426.25,120.0 L426.25,80.0" stroke="#aaaaaa" stroke-width="1.5" />
<path d="M503.75,120.0 L503.75,80.0" stroke="#aaaaaa" stroke-width="1.5" />
<path d="M581.25,120.0 L581.25,80.0" stroke="#aaaaaa" stroke-width="1.5" />
<path d="M74.58333333333333,100.0 L59.58333333333333,108.66025403784438 L59.58333333333332,91.33974596215562" fill="red" />
<path d="M152.08333333333331,100.0 L137.08333333333331,108.66025403784438 L137.08333333333331,91.33974596215562" fill="red" />
<path d="M229.58333333333331,100.0 L214.58333333333331,108.66025403784438 L214.58333333333331,91.33974596215562" fill="red" />
<path d="M307.0833333333333,100.0 L292.0833333333333,108.66025403784438 L292.0833333333333,91.33974596215562" fill="red" />
<path d="M384.5833333333333,100.0 L369.5833333333333,108.66025403784438 L369.5833333333333,91.33974596215562" fill="red" />
<path d="M462.0833333333333,100.0 L447.0833333333333,108.66025403784438 L447.0833333333333,91.33974596215562" fill="red" />
<path d="M539.5833333333334,100.0 L524.5833333333334,108.66025403784438 L524.5833333333334,91.33974596215562" fill="red" />
<g>
<path d="M297.0833333333333,129.0 Q179.0333333333333,171.0,72.80407899387403,123.66324184087004" fill="none" stroke="#28bfcc" stroke-width="1.5" stroke-dasharray="none" />
<path d="M64.58333333333331,120.0 L74.91905265680705,118.91699212081741 L70.68910533094102,128.40949156092267" fill="#28bfcc" />
</g>
<g>
<path d="M297.0833333333333,126.0 Q218.38333333333333,154.0,150.30407899387404,123.66324184087004" fill="none" stroke="#74cc28" stroke-width="1.5" stroke-dasharray="none" />
<path d="M142.08333333333331,120.0 L152.41905265680705,118.91699212081741 L148.189105330941,128.40949156092267" fill="#74cc28" />
</g>
<g>
<path d="M297.0833333333333,123.0 Q257.7333333333333,137.0,227.80407899387404,123.66324184087004" fill="none" stroke="#cc2828" stroke-width="1.5" stroke-dasharray="none" />
<path d="M219.58333333333331,120.0 L229.91905265680705,118.91699212081741 L225.689105330941,128.40949156092267" fill="#cc2828" />
</g>
<g>
<path d="M297.0833333333333,77.0 Q336.43333333333334,63.0,366.3625876727926,76.33675815912996" fill="none" stroke="#cc2828" stroke-width="1.5" stroke-dasharray="none" />
<path d="M374.5833333333333,80.0 L364.2476140098596,81.08300787918259 L368.4775613357256,71.59050843907733" fill="#cc2828" />
</g>
<g>
<path d="M297.0833333333333,74.0 Q375.7833333333333,46.0,443.8625876727926,76.33675815912996" fill="none" stroke="#74cc28" stroke-width="1.5" stroke-dasharray="none" />
<path d="M452.0833333333333,80.0 L441.7476140098596,81.08300787918259 L445.9775613357256,71.59050843907733" fill="#74cc28" />
</g>
<g>
<path d="M297.0833333333333,71.0 Q415.13333333333327,29.000000000000007,521.3625876727925,76.33675815912996" fill="none" stroke="#28bfcc" stroke-width="1.5" stroke-dasharray="none" />
<path d="M529.5833333333333,80.0 L519.2476140098595,81.08300787918259 L523.4775613357256,71.59050843907733" fill="#28bfcc" />
</g>
<g>
<path d="M293.6391824420475,91.68508420739842 A21.72792206135785,21.72792206135785,0,1,0,293.6391824420475,108.31491579260158" fill="none" stroke="#74cc28" stroke-width="1.5" stroke-dasharray="5 1" />
<path d="M297.0833333333333,100.0 L298.4398013131951,110.30339723681513 L288.8385635708999,106.32643434838803" fill="#74cc28" />
</g>
<g>
<path d="M661.25,55.0 L721.25,55.0" fill="none" stroke="#74cc28" stroke-width="1.5" stroke-dasharray="5 1" />
<text x="741.25" y="55.0" font-size="20" fill="white" dominant-baseline="middle">1</text>
<path d="M661.25,85.0 L721.25,85.0" fill="none" stroke="#cc2828" stroke-width="1.5" stroke-dasharray="none" />
<text x="741.25" y="85.0" font-size="20" fill="white" dominant-baseline="middle">2</text>
<path d="M661.25,115.0 L721.25,115.0" fill="none" stroke="#74cc28" stroke-width="1.5" stroke-dasharray="none" />
<text x="741.25" y="115.0" font-size="20" fill="white" dominant-baseline="middle">2</text>
<path d="M661.25,145.0 L721.25,145.0" fill="none" stroke="#28bfcc" stroke-width="1.5" stroke-dasharray="none" />
<text x="741.25" y="145.0" font-size="20" fill="white" dominant-baseline="middle">2</text>
</g>
</svg>