<?xml version="1.0" encoding="UTF-8"?>
<svg xmlns="http://www.w3.org/2000/svg" xmlns:xlink="http://www.w3.org/1999/xlink"
     width="800" height="200.0" viewBox="0 0 800 200.0">
<defs>
</defs>
<path d="M38.75,100.0 L581.25,100.0" stroke="#aaaaaa" stroke-width="3" />
<path d="M38.75,120.0 L38.75,80.0" stroke="#aaaaaa" stroke-width="1.5" />
<path d="M116.25,120.0 L116.25,80.0" stroke="#aaaaaa" stroke-width="1.5" />
<path d="M193.75,120.0 L193.75,80.0" stroke="#aaaaaa" stroke-width="1.5" />
<path d="M271.25,120.0 L271.25,80.0" stroke="#aaaaaa" stroke-width="1.5" />
<path d="M348.75,120.0 L348.75,80.0" stroke="#aaaaaa" stroke-width="1.5" />
<path d="M426.25,120.0 L426.25,80.0" stroke="#aaaaaa" stroke-width="1.5" />
<path d="M503.75,120.0 L503.75,80.0" stroke="#aaaaaa" stroke-width="1.5" />
<path d="M581.25,120.0 L581.25,80.0" stroke="#aaaaaa" stroke-width="1.5" />
<path d="M69.75,113.33333333333333 L69.75,86.66666666666667" stroke="#66a663" stroke-width="1.5" />
<path d="M147.25,113.33333333333333 L147.25,86.66666666666667" stroke="#66a663" stroke-width="1.5" />
<path d="M224.75,113.33333333333333 L224.75,86.66666666666667" stroke="#66a663" stroke-width="1.5" />
<path d="M302.25,113.33333333333333 L302.25,86.66666666666667" stroke="#66a663" stroke-width="1.5" />
<path d="M379.75,113.33333333333333 L379.75,86.66666666666667" stroke="#66a663" stroke-width="1.5" />
<path d="M457.25,113.33333333333333 L457.25,86.66666666666667" stroke="#66a663" stroke-width="1.5" />
<path d="M534.75,113.33333333333333 L534.75,86.66666666666667" stroke="#66a663" stroke-width="1.5" />
<path d="M108.5,113.33333333333333 L108.5,86.66666666666667" stroke="#6384a6" stroke-width="1.5" />
<path d="M186.0,113.33333333333333 L186.0,86.66666666666667" stroke="#6384a6" stroke-width="1.5" />
<path d="M263.5,113.33333333333333 L263.5,86.66666666666667" stroke="#6384a6" stroke-width="1.5" />
<path d="M341.0,113.33333333333333 L341.0,86.66666666666667" stroke="#6384a6" stroke-width="1.5" />
<path d="M418.5,113.33333333333333 L418.5,86.66666666666667" stroke="#6384a6" stroke-width="1.5" />
<path d="M496.0,113.33333333333333 L496.0,86.66666666666667" stroke="#6384a6" stroke-width="1.5" />
<path d="M573.5,113.33333333333333 L573.5,86.66666666666667" stroke="#6384a6" stroke-width="1.5" />
<path d="M79.75,100.0 L69.75,110.0 L59.75,100.0 L69.75,90.0" fill="red" />
<path d="M157.25,100.0 L147.25,110.0 L137.25,100.0 L147.25,90.0" fill="red" />
<path d="M234.75,100.0 L224.75,110.0 L214.75,100.0 L224.75,90.0" fill="red" />
<path d="M312.25,100.0 L302.25,110.0 L292.25,100.0 L302.25,90.0" fill="red" />
<path d="M389.75,100.0 L379.75,110.0 L369.75,100.0 L379.75,90.0" fill="red" />
<path d="M467.25,100.0 L457.25,110.0 L447.25,100.0 L457.25,90.0" fill="red" />
<path d="M544.75,100.0 L534.75,110.0 L524.75,100.0 L534.75,90.0" fill="red" />
<g>
<path d="M302.25,123.0 Q341.6,137.0,371.52925433945927,123.66324184087004" fill="none" stroke="#cc2828" stroke-width="1.5" stroke-dasharray="none" />
<path d="M379.75,120.0 L373.6442280023923,128.40949156092267 L369.4142806765263,118.91699212081743" fill="#cc2828" />
</g>
<g>
<path d="M302.25,123.0 Q262.9,137.0,232.97074566054073,123.66324184087004" fill="none" stroke="#cc2828" stroke-width="1.5" stroke-dasharray="none" />
<path d="M224.75,120.0 L235.08571932347374,118.91699212081741 L230.8557719976077,128.40949156092267" fill="#cc2828" />
</g>
<g>
<path d="M302.25,74.0 Q380.95,46.0,449.02925433945927,76.33675815912996" fill="none" stroke="#74cc28" stroke-width="1.5" stroke-dasharray="none" />
<path d="M457.25,80.0 L446.9142806765263,81.08300787918259 L451.1442280023923,71.59050843907733" fill="#74cc28" />
</g>
<g>
<path d="M302.25,74.0 Q223.55,46.0,155.47074566054073,76.33675815912996" fill="none" stroke="#74cc28" stroke-width="1.5" stroke-dasharray="none" />
<path d="M147.25,80.0 L153.3557719976077,71.59050843907733 L157.58571932347374,81.08300787918257" fill="#74cc28" />
</g>
<g>
<path d="M298.8058491087142,91.68508420739842 A21.72792206135785,21.72792206135785,0,1,0,298.8058491087142,108.31491579260158" fill="none" stroke="#28bfcc" stroke-width="1.5" stroke-dasharray="5 1 1 1" />
<path d="M302.25,100.0 L303.6064679798618,110.30339723681513 L294.0052302375666,106.32643434838803" fill="#28bfcc" />
</g>
<g>
<path d="M661.25,70.0 L721.25,70.0" fill="none" stroke="#28bfcc" stroke-width="1.5" stroke-dasharray="5 1 1 1" />
<text x="741.25" y="70.0" font-size="20" fill="white" dominant-baseline="middle">1</text>
<path d="M661.25,100.0 L721.25,100.0" fill="none" stroke="#cc2828" stroke-width="1.5" stroke-dasharray="none" />
<text x="741.25" y="100.0" font-size="20" fill="white" dominant-baseline="middle">2</text>
<path d="M661.25,130.0 L721.25,130.0" fill="none" stroke="#74cc28" stroke-width="1.5" stroke-dasharray="none" />
<text x="741.25" y="130.0" font-size="20" fill="white" dominant-baseline="middle">2</text>
</g>
</svg>