<?xml version="1.0" encoding="UTF-8"?>
<svg xmlns="http://www.w3.org/2000/svg" xmlns:xlink="http://www.w3.org/1999/xlink"
     width="800" height="640.0" viewBox="0 0 800 640.0">
<defs>
</defs>
<path d="M30.0,30 L30.0,610.0" stroke="#aaaaaa" stroke-width="1.5" />
<path d="M276.66666666666663,30 L276.66666666666663,610.0" stroke="#aaaaaa" stroke-width="1.5" />
<path d="M523.3333333333333,30 L523.3333333333333,610.0" stroke="#aaaaaa" stroke-width="1.5" />
<path d="M770.0,30 L770.0,610.0" stroke="#aaaaaa" stroke-width="1.5" />
<path d="M30,30.0 L770,30.0" stroke="#aaaaaa" stroke-width="1.5" />
<path d="M30,223.33333333333334 L770,223.33333333333334" stroke="#aaaaaa" stroke-width="1.5" />
<path d="M30,416.6666666666667 L770,416.6666666666667" stroke="#aaaaaa" stroke-width="1.5" />
<path d="M30,610.0 L770,610.0" stroke="#aaaaaa" stroke-width="1.5" />
<path d="M30.0,30 L30.0,610.0" stroke="#66a663" stroke-width="3" stroke-dasharray="5 5" />
<path d="M153.33333333333331,30 L153.33333333333331,610.0" stroke="#66a663" stroke-width="3" stroke-dasharray="5 5" />
<path d="M276.66666666666663,30 L276.66666666666663,610.0" stroke="#66a663" stroke-width="3" stroke-dasharray="5 5" />
<path d="M400.0,30 L400.0,610.0" stroke="#66a663" stroke-width="3" stroke-dasharray="5 5" />
<path d="M523.3333333333333,30 L523.3333333333333,610.0" stroke="#66a663" stroke-width="3" stroke-dasharray="5 5" />
<path d="M646.6666666666666,30 L646.6666666666666,610.0" stroke="#66a663" stroke-width="3" stroke-dasharray="5 5" />
<path d="M770.0,30 L770.0,610.0" stroke="#66a663" stroke-width="3" stroke-dasharray="5 5" />
<path d="M30,78.33333333333334 L770,78.33333333333334" stroke="#6384a6" stroke-width="3" />
<path d="M30,175.0 L770,175.0" stroke="#6384a6" stroke-width="3" />
<path d="M30,271.6666666666667 L770,271.6666666666667" stroke="#6384a6" stroke-width="3" />
<path d="M30,368.3333333333333 L770,368.3333333333333" stroke="#6384a6" stroke-width="3" />
<path d="M30,465.0 L770,465.0" stroke="#6384a6" stroke-width="3" />
<path d="M30,561.6666666666667 L770,561.6666666666667" stroke="#6384a6" stroke-width="3" />
<ellipse cx="30.0" cy="30.0" rx="8.222222222222221" ry="16.444444444444443" fill="#a663a3" />
<ellipse cx="30.0" cy="126.66666666666667" rx="8.222222222222221" ry="16.444444444444443" fill="#a663a3" />
<ellipse cx="30.0" cy="223.33333333333334" rx="8.222222222222221" ry="16.444444444444443" fill="#a663a3" />
<ellipse cx="30.0" cy="320.0" rx="8.222222222222221" ry="16.444444444444443" fill="#a663a3" />
<ellipse cx="30.0" cy="416.6666666666667" rx="8.222222222222221" ry="16.444444444444443" fill="#a663a3" />
<ellipse cx="30.0" cy="513.3333333333334" rx="8.222222222222221" ry="16.444444444444443" fill="#a663a3" />
<ellipse cx="30.0" cy="610.0" rx="8.222222222222221" ry="16.444444444444443" fill="#a663a3" />
<ellipse cx="153.33333333333331" cy="30.0" rx="8.222222222222221" ry="16.444444444444443" fill="#a663a3" />
<ellipse cx="153.33333333333331" cy="126.66666666666667" rx="8.222222222222221" ry="16.444444444444443" fill="#a663a3" />
<ellipse cx="153.33333333333331" cy="223.33333333333334" rx="8.222222222222221" ry="16.444444444444443" fill="#a663a3" />
<ellipse cx="153.33333333333331" cy="320.0" rx="8.222222222222221" ry="16.444444444444443" fill="#a663a3" />
<ellipse cx="153.33333333333331" cy="416.6666666666667" rx="8.222222222222221" ry="16.444444444444443" fill="#a663a3" />
<ellipse cx="153.33333333333331" cy="513.3333333333334" rx="8.222222222222221" ry="16.444444444444443" fill="#a663a3" />
<ellipse cx="153.33333333333331" cy="610.0" rx="8.222222222222221" ry="16.444444444444443" fill="#a663a3" />
<ellipse cx="276.66666666666663" cy="30.0" rx="8.222222222222221" ry="16.444444444444443" fill="#a663a3" />
<ellipse cx="276.66666666666663" cy="126.66666666666667" rx="8.222222222222221" ry="16.444444444444443" fill="#a663a3" />
<ellipse cx="276.66666666666663" cy="223.33333333333334" rx="8.222222222222221" ry="16.444444444444443" fill="#a663a3" />
<ellipse cx="276.66666666666663" cy="320.0" rx="8.222222222222221" ry="16.444444444444443" fill="#a663a3" />
<ellipse cx="276.66666666666663" cy="416.6666666666667" rx="8.222222222222221" ry="16.444444444444443" fill="#a663a3" />
<ellipse cx="276.66666666666663" cy="513.3333333333334" rx="8.222222222222221" ry="16.444444444444443" fill="#a663a3" />
<ellipse cx="276.66666666666663" cy="610.0" rx="8.222222222222221" ry="16.444444444444443" fill="#a663a3" />
<ellipse cx="400.0" cy="30.0" rx="8.222222222222221" ry="16.444444444444443" fill="#a663a3" />
<ellipse cx="400.0" cy="126.66666666666667" rx="8.222222222222221" ry="16.444444444444443" fill="#a663a3" />
<ellipse cx="400.0" cy="223.33333333333334" rx="8.222222222222221" ry="16.444444444444443" fill="#a663a3" />
<ellipse cx="400.0" cy="320.0" rx="8.222222222222221" ry="16.444444444444443" fill="#a663a3" />
<ellipse cx="400.0" cy="416.6666666666667" rx="8.222222222222221" ry="16.444444444444443" fill="#a663a3" />
<ellipse cx="400.0" cy="513.3333333333334" rx="8.222222222222221" ry="16.444444444444443" fill="#a663a3" />
<ellipse cx="400.0" cy="610.0" rx="8.222222222222221" ry="16.444444444444443" fill="#a663a3" />
<ellipse cx="523.3333333333333" cy="30.0" rx="8.222222222222221" ry="16.444444444444443" fill="#a663a3" />
<ellipse cx="523.3333333333333" cy="126.66666666666667" rx="8.222222222222221" ry="16.444444444444443" fill="#a663a3" />
<ellipse cx="523.3333333333333" cy="223.33333333333334" rx="8.222222222222221" ry="16.444444444444443" fill="#a663a3" />
<ellipse cx="523.3333333333333" cy="320.0" rx="8.222222222222221" ry="16.444444444444443" fill="#a663a3" />
<ellipse cx="523.3333333333333" cy="416.6666666666667" rx="8.222222222222221" ry="16.444444444444443" fill="#a663a3" />
<ellipse cx="523.3333333333333" cy="513.3333333333334" rx="8.222222222222221" ry="16.444444444444443" fill="#a663a3" />
<ellipse cx="523.3333333333333" cy="610.0" rx="8.222222222222221" ry="16.444444444444443" fill="#a663a3" />
<ellipse cx="646.6666666666666" cy="30.0" rx="8.222222222222221" ry="16.444444444444443" fill="#a663a3" />
<ellipse cx="646.6666666666666" cy="126.66666666666667" rx="8.222222222222221" ry="16.444444444444443" fill="#a663a3" />
<ellipse cx="646.6666666666666" cy="223.33333333333334" rx="8.222222222222221" ry="16.444444444444443" fill="#a663a3" />
<ellipse cx="646.6666666666666" cy="320.0" rx="8.222222222222221" ry="16.444444444444443" fill="#a663a3" />
<ellipse cx="646.6666666666666" cy="416.6666666666667" rx="8.222222222222221" ry="16.444444444444443" fill="#a663a3" />
<ellipse cx="646.6666666666666" cy="513.3333333333334" rx="8.222222222222221" ry="16.444444444444443" fill="#a663a3" />
<ellipse cx="646.6666666666666" cy="610.0" rx="8.222222222222221" ry="16.444444444444443" fill="#a663a3" />
<ellipse cx="770.0" cy="30.0" rx="8.222222222222221" ry="16.444444444444443" fill="#a663a3" />
<ellipse cx="770.0" cy="126.66666666666667" rx="8.222222222222221" ry="16.444444444444443" fill="#a663a3" />
<ellipse cx="770.0" cy="223.33333333333334" rx="8.222222222222221" ry="16.444444444444443" fill="#a663a3" />
<ellipse cx="770.0" cy="320.0" rx="8.222222222222221" ry="16.444444444444443" fill="#a663a3" />
<ellipse cx="770.0" cy="416.6666666666667" rx="8.222222222222221" ry="16.444444444444443" fill="#a663a3" />
<ellipse cx="770.0" cy="513.3333333333334" rx="8.222222222222221" ry="16.444444444444443" fill="#a663a3" />
<ellipse cx="770.0" cy="610.0" rx="8.222222222222221" ry="16.444444444444443" fill="#a663a3" />
<path d="M99.33333333333333,78.33333333333334 L69.33333333333333,95.65384140902212 L69.33333333333331,61.01282525764458" fill="red" />
<path d="M207.33333333333331,175.0 L237.33333333333331,157.6794919243112 L237.33333333333331,192.32050807568876" fill="red" />
<path d="M99.33333333333333,271.6666666666667 L69.33333333333333,288.9871747423555 L69.33333333333331,254.34615859097792" fill="red" />
<path d="M207.33333333333331,368.33333333333337 L237.33333333333331,351.0128252576446 L237.33333333333331,385.65384140902216" fill="red" />
<path d="M99.33333333333333,465.0 L69.33333333333333,482.3205080756888 L69.33333333333331,447.6794919243112" fill="red" />
<path d="M207.33333333333331,561.6666666666666 L237.33333333333331,544.3461585909779 L237.33333333333331,578.9871747423554" fill="red" />
<path d="M345.99999999999994,78.33333333333334 L315.99999999999994,95.65384140902212 L315.99999999999994,61.01282525764458" fill="red" />
<path d="M453.99999999999994,175.0 L483.99999999999994,157.6794919243112 L483.99999999999994,192.32050807568876" fill="red" />
<path d="M345.99999999999994,271.6666666666667 L315.99999999999994,288.9871747423555 L315.99999999999994,254.34615859097792" fill="red" />
<path d="M453.99999999999994,368.33333333333337 L483.99999999999994,351.0128252576446 L483.99999999999994,385.65384140902216" fill="red" />
<path d="M345.99999999999994,465.0 L315.99999999999994,482.3205080756888 L315.99999999999994,447.6794919243112" fill="red" />
<path d="M453.99999999999994,561.6666666666666 L483.99999999999994,544.3461585909779 L483.99999999999994,578.9871747423554" fill="red" />
<path d="M592.6666666666666,78.33333333333334 L562.6666666666666,95.65384140902212 L562.6666666666666,61.01282525764458" fill="red" />
<path d="M700.6666666666666,175.0 L730.6666666666666,157.6794919243112 L730.6666666666666,192.32050807568876" fill="red" />
<path d="M592.6666666666666,271.6666666666667 L562.6666666666666,288.9871747423555 L562.6666666666666,254.34615859097792" fill="red" />
<path d="M700.6666666666666,368.33333333333337 L730.6666666666666,351.0128252576446 L730.6666666666666,385.65384140902216" fill="red" />
<path d="M592.6666666666666,465.0 L562.6666666666666,482.3205080756888 L562.6666666666666,447.6794919243112" fill="red" />
<path d="M700.6666666666666,561.6666666666666 L730.6666666666666,544.3461585909779 L730.6666666666666,578.9871747423554" fill="red" />
<g>
<path d="M325.99999999999994,271.6666666666667 Q449.33333333333326,222.33333333333334,555.954086230732,264.9816344922928" fill="none" stroke="#74cc28" stroke-width="3" stroke-dasharray="none" />
<path d="M572.6666666666666,271.6666666666667 L552.0944811053159,274.63064730583295 L559.8136913561481,255.33262167875264" fill="#74cc28" />
</g>
<g>
<path d="M325.99999999999994,271.6666666666667 Q202.66666666666663,222.33333333333334,96.04591376926795,264.9816344922928" fill="none" stroke="#74cc28" stroke-width="3" stroke-dasharray="none" />
<path d="M79.33333333333329,271.6666666666667 L92.18630864385189,255.33262167875264 L99.90551889468402,274.63064730583295" fill="#74cc28" />
</g>
<g>
<path d="M325.99999999999994,271.6666666666667 Q380.6666666666667,349.6,456.351976178483,364.79112283772884" fill="none" stroke="#28bfcc" stroke-width="3" stroke-dasharray="none" />
<path d="M474.0,368.3333333333333 L454.30687999531955,374.98021414174656 L458.3970723616466,354.6020315337111" fill="#28bfcc" />
</g>
<g>
<path d="M325.99999999999994,271.6666666666667 Q380.6666666666667,193.73333333333332,456.351976178483,178.54221049560448" fill="none" stroke="#28bfcc" stroke-width="3" stroke-dasharray="none" />
<path d="M474.0,175.0 L458.3970723616466,188.7313017996222 L454.3068799953195,168.35311919158676" fill="#28bfcc" />
</g>
<g>
<path d="M325.99999999999994,271.6666666666667 Q295.99999999999994,203.60000000000002,243.94967236876116,181.9207858700957" fill="none" stroke="#8e28cc" stroke-width="3" stroke-dasharray="none" />
<path d="M227.3333333333333,175.0 L247.94538995386466,172.32733805504532 L239.95395478365768,191.51423368514605" fill="#8e28cc" />
</g>
<g>
<path d="M325.99999999999994,271.6666666666667 Q295.99999999999994,339.73333333333335,243.94967236876116,361.4125474632377" fill="none" stroke="#8e28cc" stroke-width="3" stroke-dasharray="none" />
<path d="M227.3333333333333,368.33333333333337 L239.95395478365765,351.8190996481873 L247.94538995386466,371.0059952782881" fill="#8e28cc" />
</g>
<g>
<path d="M325.99999999999994,271.6666666666667 L325.99999999999994,447.0" fill="none" stroke="#cc4328" stroke-width="3" stroke-dasharray="none" />
<path d="M325.99999999999994,465.0 L315.6076951545867,447.0 L336.3923048454132,447.0" fill="#cc4328" />
</g>
<g>
<path d="M325.99999999999994,271.6666666666667 L325.99999999999994,96.33333333333334" fill="none" stroke="#cc4328" stroke-width="3" stroke-dasharray="none" />
<path d="M325.99999999999994,78.33333333333334 L336.3923048454132,96.33333333333334 L315.6076951545867,96.33333333333334" fill="#cc4328" />
</g>
<g>
<path d="M319.11169821742834,255.03683508146352 A43.4558441227157,43.4558441227157,0,1,0,319.11169821742834,288.2964982518698" fill="none" stroke="#cc2828" stroke-width="3" stroke-dasharray="none" />
<path d="M325.99999999999994,271.6666666666667 L328.7129359597235,292.27346114029694 L309.51046047513313,284.31953536344275" fill="#cc2828" />
</g>
</svg>