<?xml version="1.0" encoding="UTF-8"?>
<svg xmlns="http://www.w3.org/2000/svg" xmlns:xlink="http://www.w3.org/1999/xlink"
     width="800" height="640.0" viewBox="0 0 800 640.0">
<defs>
</defs>
<path d="M50.0,40.0 L50.0,600.0" stroke="#aaaaaa" stroke-width="1.5" />
<path d="M283.33333333333337,40.0 L283.33333333333337,600.0" stroke="#aaaaaa" stroke-width="1.5" />
<path d="M516.6666666666667,40.0 L516.6666666666667,600.0" stroke="#aaaaaa" stroke-width="1.5" />
<path d="M750.0,40.0 L750.0,600.0" stroke="#aaaaaa" stroke-width="1.5" />
<path d="M50.0,40.0 L750.0,40.0" stroke="#aaaaaa" stroke-width="1.5" />
<path d="M50.0,226.66666666666666 L750.0,226.66666666666666" stroke="#aaaaaa" stroke-width="1.5" />
<path d="M50.0,413.3333333333333 L750.0,413.3333333333333" stroke="#aaaaaa" stroke-width="1.5" />
<path d="M50.0,600.0 L750.0,600.0" stroke="#aaaaaa" stroke-width="1.5" />
<path d="M50.0,40.0 L50.0,600.0" stroke="#66a663" stroke-width="3" stroke-dasharray="5 5" />
<path d="M166.66666666666669,40.0 L166.66666666666669,600.0" stroke="#66a663" stroke-width="3" stroke-dasharray="5 5" />
<path d="M283.33333333333337,40.0 L283.33333333333337,600.0" stroke="#66a663" stroke-width="3" stroke-dasharray="5 5" />
<path d="M400.0,40.0 L400.0,600.0" stroke="#66a663" stroke-width="3" stroke-dasharray="5 5" />
<path d="M516.6666666666667,40.0 L516.6666666666667,600.0" stroke="#66a663" stroke-width="3" stroke-dasharray="5 5" />
<path d="M633.3333333333334,40.0 L633.3333333333334,600.0" stroke="#66a663" stroke-width="3" stroke-dasharray="5 5" />
<path d="M750.0,40.0 L750.0,600.0" stroke="#66a663" stroke-width="3" stroke-dasharray="5 5" />
<path d="M50.0,86.66666666666666 L750.0,86.66666666666666" stroke="#6384a6" stroke-width="3" />
<path d="M50.0,179.99999999999997 L750.0,179.99999999999997" stroke="#6384a6" stroke-width="3" />
<path d="M50.0,273.3333333333333 L750.0,273.3333333333333" stroke="#6384a6" stroke-width="3" />
<path d="M50.0,366.6666666666667 L750.0,366.6666666666667" stroke="#6384a6" stroke-width="3" />
<path d="M50.0,460.0 L750.0,460.0" stroke="#6384a6" stroke-width="3" />
<path d="M50.0,553.3333333333333 L750.0,553.3333333333333" stroke="#6384a6" stroke-width="3" />
<ellipse cx="50.0" cy="40.0" rx="7.777777777777778" ry="15.555555555555555" fill="#a663a3" />
<ellipse cx="50.0" cy="133.33333333333331" rx="7.777777777777778" ry="15.555555555555555" fill="#a663a3" />
<ellipse cx="50.0" cy="226.66666666666666" rx="7.777777777777778" ry="15.555555555555555" fill="#a663a3" />
<ellipse cx="50.0" cy="320.0" rx="7.777777777777778" ry="15.555555555555555" fill="#a663a3" />
<ellipse cx="50.0" cy="413.3333333333333" rx="7.777777777777778" ry="15.555555555555555" fill="#a663a3" />
<ellipse cx="50.0" cy="506.66666666666663" rx="7.777777777777778" ry="15.555555555555555" fill="#a663a3" />
<ellipse cx="50.0" cy="600.0" rx="7.777777777777778" ry="15.555555555555555" fill="#a663a3" />
<ellipse cx="166.66666666666669" cy="40.0" rx="7.777777777777778" ry="15.555555555555555" fill="#a663a3" />
<ellipse cx="166.66666666666669" cy="133.33333333333331" rx="7.777777777777778" ry="15.555555555555555" fill="#a663a3" />
<ellipse cx="166.66666666666669" cy="226.66666666666666" rx="7.777777777777778" ry="15.555555555555555" fill="#a663a3" />
<ellipse cx="166.66666666666669" cy="320.0" rx="7.777777777777778" ry="15.555555555555555" fill="#a663a3" />
<ellipse cx="166.66666666666669" cy="413.3333333333333" rx="7.777777777777778" ry="15.555555555555555" fill="#a663a3" />
<ellipse cx="166.66666666666669" cy="506.66666666666663" rx="7.777777777777778" ry="15.555555555555555" fill="#a663a3" />
<ellipse cx="166.66666666666669" cy="600.0" rx="7.777777777777778" ry="15.555555555555555" fill="#a663a3" />
<ellipse cx="283.33333333333337" cy="40.0" rx="7.777777777777778" ry="15.555555555555555" fill="#a663a3" />
<ellipse cx="283.33333333333337" cy="133.33333333333331" rx="7.777777777777778" ry="15.555555555555555" fill="#a663a3" />
<ellipse cx="283.33333333333337" cy="226.66666666666666" rx="7.777777777777778" ry="15.555555555555555" fill="#a663a3" />
<ellipse cx="283.33333333333337" cy="320.0" rx="7.777777777777778" ry="15.555555555555555" fill="#a663a3" />
<ellipse cx="283.33333333333337" cy="413.3333333333333" rx="7.777777777777778" ry="15.555555555555555" fill="#a663a3" />
<ellipse cx="283.33333333333337" cy="506.66666666666663" rx="7.777777777777778" ry="15.555555555555555" fill="#a663a3" />
<ellipse cx="283.33333333333337" cy="600.0" rx="7.777777777777778" ry="15.555555555555555" fill="#a663a3" />
<ellipse cx="400.0" cy="40.0" rx="7.777777777777778" ry="15.555555555555555" fill="#a663a3" />
<ellipse cx="400.0" cy="133.33333333333331" rx="7.777777777777778" ry="15.555555555555555" fill="#a663a3" />
<ellipse cx="400.0" cy="226.66666666666666" rx="7.777777777777778" ry="15.555555555555555" fill="#a663a3" />
<ellipse cx="400.0" cy="320.0" rx="7.777777777777778" ry="15.555555555555555" fill="#a663a3" />
<ellipse cx="400.0" cy="413.3333333333333" rx="7.777777777777778" ry="15.555555555555555" fill="#a663a3" />
<ellipse cx="400.0" cy="506.66666666666663" rx="7.777777777777778" ry="15.555555555555555" fill="#a663a3" />
<ellipse cx="400.0" cy="600.0" rx="7.777777777777778" ry="15.555555555555555" fill="#a663a3" />
<ellipse cx="516.6666666666667" cy="40.0" rx="7.777777777777778" ry="15.555555555555555" fill="#a663a3" />
<ellipse cx="516.6666666666667" cy="133.33333333333331" rx="7.777777777777778" ry="15.555555555555555" fill="#a663a3" />
<ellipse cx="516.6666666666667" cy="226.66666666666666" rx="7.777777777777778" ry="15.555555555555555" fill="#a663a3" />
<ellipse cx="516.6666666666667" cy="320.0" rx="7.777777777777778" ry="15.555555555555555" fill="#a663a3" />
<ellipse cx="516.6666666666667" cy="413.3333333333333" rx="7.777777777777778" ry="15.555555555555555" fill="#a663a3" />
<ellipse cx="516.6666666666667" cy="506.66666666666663" rx="7.777777777777778" ry="15.555555555555555" fill="#a663a3" />
<ellipse cx="516.6666666666667" cy="600.0" rx="7.777777777777778" ry="15.555555555555555" fill="#a663a3" />
<ellipse cx="633.3333333333334" cy="40.0" rx="7.777777777777778" ry="15.555555555555555" fill="#a663a3" />
<ellipse cx="633.3333333333334" cy="133.33333333333331" rx="7.777777777777778" ry="15.555555555555555" fill="#a663a3" />
<ellipse cx="633.3333333333334" cy="226.66666666666666" rx="7.777777777777778" ry="15.555555555555555" fill="#a663a3" />
<ellipse cx="633.3333333333334" cy="320.0" rx="7.777777777777778" ry="15.555555555555555" fill="#a663a3" />
<ellipse cx="633.3333333333334" cy="413.3333333333333" rx="7.777777777777778" ry="15.555555555555555" fill="#a663a3" />
<ellipse cx="633.3333333333334" cy="506.66666666666663" rx="7.777777777777778" ry="15.555555555555555" fill="#a663a3" />
<ellipse cx="633.3333333333334" cy="600.0" rx="7.777777777777778" ry="15.555555555555555" fill="#a663a3" />
<ellipse cx="750.0" cy="40.0" rx="7.777777777777778" ry="15.555555555555555" fill="#a663a3" />
<ellipse cx="750.0" cy="133.33333333333331" rx="7.777777777777778" ry="15.555555555555555" fill="#a663a3" />
<ellipse cx="750.0" cy="226.66666666666666" rx="7.777777777777778" ry="15.555555555555555" fill="#a663a3" />
<ellipse cx="750.0" cy="320.0" rx="7.777777777777778" ry="15.555555555555555" fill="#a663a3" />
<ellipse cx="750.0" cy="413.3333333333333" rx="7.777777777777778" ry="15.555555555555555" fill="#a663a3" />
<ellipse cx="750.0" cy="506.66666666666663" rx="7.777777777777778" ry="15.555555555555555" fill="#a663a3" />
<ellipse cx="750.0" cy="600.0" rx="7.777777777777778" ry="15.555555555555555" fill="#a663a3" />
<path d="M108.66666666666667,86.66666666666666 L90.66666666666667,97.05897151207992 L90.66666666666667,76.2743618212534" fill="red" />
<path d="M224.66666666666669,180.0 L242.66666666666669,169.60769515458674 L242.66666666666669,190.39230484541326" fill="red" />
<path d="M108.66666666666667,273.3333333333333 L90.66666666666667,283.7256381787466 L90.66666666666667,262.94102848792005" fill="red" />
<path d="M224.66666666666669,366.66666666666663 L242.66666666666669,356.27436182125336 L242.66666666666669,377.0589715120799" fill="red" />
<path d="M108.66666666666667,460.0 L90.66666666666667,470.39230484541326 L90.66666666666667,449.60769515458674" fill="red" />
<path d="M224.66666666666669,553.3333333333334 L242.66666666666669,542.9410284879201 L242.66666666666669,563.7256381787466" fill="red" />
<path d="M342.00000000000006,86.66666666666666 L324.00000000000006,97.05897151207992 L324.00000000000006,76.2743618212534" fill="red" />
<path d="M458.00000000000006,180.0 L476.00000000000006,169.60769515458674 L476.00000000000006,190.39230484541326" fill="red" />
<path d="M342.00000000000006,273.3333333333333 L324.00000000000006,283.7256381787466 L324.00000000000006,262.94102848792005" fill="red" />
<path d="M458.00000000000006,366.66666666666663 L476.00000000000006,356.27436182125336 L476.00000000000006,377.0589715120799" fill="red" />
<path d="M342.00000000000006,460.0 L324.00000000000006,470.39230484541326 L324.00000000000006,449.60769515458674" fill="red" />
<path d="M458.00000000000006,553.3333333333334 L476.00000000000006,542.9410284879201 L476.00000000000006,563.7256381787466" fill="red" />
<path d="M575.3333333333334,86.66666666666666 L557.3333333333334,97.05897151207992 L557.3333333333334,76.2743618212534" fill="red" />
<path d="M691.3333333333334,180.0 L709.3333333333334,169.60769515458674 L709.3333333333334,190.39230484541326" fill="red" />
<path d="M575.3333333333334,273.3333333333333 L557.3333333333334,283.7256381787466 L557.3333333333334,262.94102848792005" fill="red" />
<path d="M691.3333333333334,366.66666666666663 L709.3333333333334,356.27436182125336 L709.3333333333334,377.0589715120799" fill="red" />
<path d="M575.3333333333334,460.0 L557.3333333333334,470.39230484541326 L557.3333333333334,449.60769515458674" fill="red" />
<path d="M691.3333333333334,553.3333333333334 L709.3333333333334,542.9410284879201 L709.3333333333334,563.7256381787466" fill="red" />
<g>
<path d="M330.00000000000006,273.3333333333333 Q446.66666666666674,226.66666666666666,554.9770431153661,269.9908172461464" fill="none" stroke="#74cc28" stroke-width="1.5" stroke-dasharray="none" />
<path d="M563.3333333333334,273.3333333333333 L553.047240552658,274.8153236529165 L556.906845678074,265.1663108393763" fill="#74cc28" />
</g>
<g>
<path d="M330.00000000000006,273.3333333333333 Q213.33333333333337,226.66666666666663,105.02295688463406,269.9908172461464" fill="none" stroke="#74cc28" stroke-width="1.5" stroke-dasharray="none" />
<path d="M96.66666666666671,273.3333333333333 L103.09315432192601,265.1663108393763 L106.95275944734207,274.81532365291645" fill="#74cc28" />
</g>
<g>
<path d="M330.00000000000006,273.3333333333333 Q381.3333333333333,348.0,461.1930519351193,364.8125723372181" fill="none" stroke="#28bfcc" stroke-width="1.5" stroke-dasharray="none" />
<path d="M470.0,366.6666666666667 L460.12259007490917,369.89726617321605 L462.26351379532935,359.7278785012201" fill="#28bfcc" />
</g>
<g>
<path d="M330.00000000000006,273.3333333333333 Q381.3333333333333,198.66666666666666,461.1930519351193,181.85409432944857" fill="none" stroke="#28bfcc" stroke-width="1.5" stroke-dasharray="none" />
<path d="M470.0,180.0 L462.26351379532935,186.9387881654465 L460.12259007490917,176.7694004934506" fill="#28bfcc" />
</g>
<g>
<path d="M330.00000000000006,273.3333333333333 Q302.00000000000006,208.0,244.93897193682923,183.5452736872125" fill="none" stroke="#8e28cc" stroke-width="1.5" stroke-dasharray="none" />
<path d="M236.6666666666667,180.0 L246.98583665449226,178.7692560126654 L242.8921072191662,188.3212913617596" fill="#8e28cc" />
</g>
<g>
<path d="M330.00000000000006,273.3333333333333 Q302.00000000000006,338.6666666666667,244.93897193682923,363.12139297945413" fill="none" stroke="#8e28cc" stroke-width="1.5" stroke-dasharray="none" />
<path d="M236.6666666666667,366.66666666666663 L242.8921072191662,358.34537530490707 L246.98583665449226,367.89741065400125" fill="#8e28cc" />
</g>
<g>
<path d="M330.00000000000006,273.3333333333333 L330.00000000000006,451.0" fill="none" stroke="#cc4328" stroke-width="1.5" stroke-dasharray="none" />
<path d="M330.00000000000006,460.0 L324.8038475772934,451.0 L335.1961524227067,451.0" fill="#cc4328" />
</g>
<g>
<path d="M330.00000000000006,273.3333333333333 L330.00000000000006,95.66666666666666" fill="none" stroke="#cc4328" stroke-width="1.5" stroke-dasharray="none" />
<path d="M330.00000000000006,86.66666666666666 L335.1961524227067,95.66666666666666 L324.8038475772934,95.66666666666666" fill="#cc4328" />
</g>
<g>
<path d="M326.55584910871426,265.0184175407317 A21.72792206135785,21.72792206135785,0,1,0,326.55584910871426,281.6482491259349" fill="none" stroke="#aaaaaa" stroke-width="1.5" stroke-dasharray="none" />
<path d="M330.00000000000006,273.3333333333333 L331.35646797986186,283.6367305701485 L321.75523023756665,279.65976768172135" fill="#aaaaaa" />
</g>
</svg>