<?xml version="1.0" encoding="UTF-8"?>
<svg xmlns="http://www.w3.org/2000/svg" xmlns:xlink="http://www.w3.org/1999/xlink"
     width="800" height="640.0" viewBox="0 0 800 640.0">
<defs>
</defs>
<path d="M80.0,64.0 L80.0,576.0" stroke="#aaaaaa" stroke-width="1.5" />
<path d="M720.0,64.0 L720.0,576.0" stroke="#aaaaaa" stroke-width="1.5" />
<path d="M80.0,64.0 L720.0,64.0" stroke="#aaaaaa" stroke-width="1.5" />
<path d="M80.0,576.0 L720.0,576.0" stroke="#aaaaaa" stroke-width="1.5" />
<path d="M80.0,64.0 L80.0,576.0" stroke="#66a663" stroke-width="3" stroke-dasharray="5 5" />
<path d="M400.0,64.0 L400.0,576.0" stroke="#66a663" stroke-width="3" stroke-dasharray="5 5" />
<path d="M720.0,64.0 L720.0,576.0" stroke="#66a663" stroke-width="3" stroke-dasharray="5 5" />
<path d="M80.0,192.0 L720.0,192.0" stroke="#6384a6" stroke-width="3" />
<path d="M80.0,448.0 L720.0,448.0" stroke="#6384a6" stroke-width="3" />
<ellipse cx="80.0" cy="64.0" rx="21.333333333333332" ry="42.666666666666664" fill="#a663a3" />
<ellipse cx="80.0" cy="320.0" rx="21.333333333333332" ry="42.666666666666664" fill="#a663a3" />
<ellipse cx="80.0" cy="576.0" rx="21.333333333333332" ry="42.666666666666664" fill="#a663a3" />
<ellipse cx="400.0" cy="64.0" rx="21.333333333333332" ry="42.666666666666664" fill="#a663a3" />
<ellipse cx="400.0" cy="320.0" rx="21.333333333333332" ry="42.666666666666664" fill="#a663a3" />
<ellipse cx="400.0" cy="576.0" rx="21.333333333333332" ry="42.666666666666664" fill="#a663a3" />
<ellipse cx="720.0" cy="64.0" rx="21.333333333333332" ry="42.666666666666664" fill="#a663a3" />
<ellipse cx="720.0" cy="320.0" rx="21.333333333333332" ry="42.666666666666664" fill="#a663a3" />
<ellipse cx="720.0" cy="576.0" rx="21.333333333333332" ry="42.666666666666664" fill="#a663a3" />
<path d="M622.0,192.0 L577.0,217.98076211353316 L577.0,166.01923788646684" fill="red" />
<path d="M178.0,448.0 L222.99999999999997,422.01923788646684 L223.00000000000003,473.98076211353316" fill="red" />
<path d="M314.23453461374834,149.52068272698568 L279.32477418921275,154.52848036932522 L263.7743663684387,122.87481981114168 L289.0734462208138,98.30398407549274 L320.2595452744533,114.7720330170547" fill="red" />
<path d="M314.23453461374834,234.47931727301432 L320.2595452744533,269.2279669829453 L289.0734462208138,285.69601592450726 L263.7743663684387,261.12518018885834 L279.3247741892127,229.47151963067478" fill="red" />
<path d="M485.76546538625166,490.4793172730143 L520.6752258107873,485.4715196306748 L536.2256336315613,517.1251801888583 L510.92655377918624,541.6960159245073 L479.74045472554667,525.2279669829453" fill="red" />
<path d="M485.76546538625166,405.5206827269857 L479.7404547255467,370.7720330170547 L510.9265537791862,354.30398407549274 L536.2256336315613,378.87481981114166 L520.6752258107873,410.5284803693252" fill="red" />
</svg>