<?xml version="1.0" encoding="UTF-8"?>
<svg xmlns="http://www.w3.org/2000/svg" xmlns:xlink="http://www.w3.org/1999/xlink"
     width="500" height="125.0" viewBox="0 0 500 125.0">
<defs>
</defs>
<path d="M31.25,62.5 L468.75,62.5" stroke="black" stroke-width="2" />
<path d="M31.25,82.5 L31.25,42.5" stroke="black" stroke-width="1.0" />
<path d="M93.75,82.5 L93.75,42.5" stroke="black" stroke-width="1.0" />
<path d="M156.25,82.5 L156.25,42.5" stroke="black" stroke-width="1.0" />
<path d="M218.75,82.5 L218.75,42.5" stroke="black" stroke-width="1.0" />
<path d="M281.25,82.5 L281.25,42.5" stroke="black" stroke-width="1.0" />
<path d="M343.75,82.5 L343.75,42.5" stroke="black" stroke-width="1.0" />
<path d="M406.25,82.5 L406.25,42.5" stroke="black" stroke-width="1.0" />
<path d="M468.75,82.5 L468.75,42.5" stroke="black" stroke-width="1.0" />
<path d="M62.08333333333333,62.5 L47.08333333333333,71.16025403784438 L47.08333333333332,53.83974596215562" fill="red" />
<path d="M124.58333333333333,62.5 L109.58333333333333,71.16025403784438 L109.58333333333333,53.83974596215562" fill="red" />
<path d="M187.08333333333331,62.5 L172.08333333333331,71.16025403784438 L172.08333333333331,53.83974596215562" fill="red" />
<path d="M249.58333333333331,62.5 L234.58333333333331,71.16025403784438 L234.58333333333331,53.83974596215562" fill="red" />
<path d="M312.0833333333333,62.5 L297.0833333333333,71.16025403784438 L297.0833333333333,53.83974596215562" fill="red" />
<path d="M374.5833333333333,62.5 L359.5833333333333,71.16025403784438 L359.5833333333333,53.83974596215562" fill="red" />
<path d="M437.0833333333333,62.5 L422.0833333333333,71.16025403784438 L422.0833333333333,53.83974596215562" fill="red" />
<g>
<path d="M236.75490620858716,59.67157287525381 c-16.970562748477143,-16.97056274847714,-16.970562748477143,16.97056274847714,-2.121320343559643,10.606601717798211" fill="none" stroke="black" stroke-width="1.0" stroke-dasharray="none" />
<path d="M239.34069264621405,66.74264068711929 L233.34069264621405,70.20674230225704 L233.34069264621405,63.27853907198154" fill="black" />
</g>
<g>
<path d="M239.58333333333334,91.5 Q144.03333333333333,124.5,57.540949407383806,84.99287520511277" fill="none" stroke="#28bfcc" stroke-width="1.0" stroke-dasharray="none" />
<path d="M52.08333333333334,82.5 L58.980211578111806,81.84191909562611 L56.1016872366558,88.14383131459944" fill="#28bfcc" />
</g>
<g>
<path d="M239.58333333333334,88.5 Q175.88333333333335,110.5,120.0409494073838,84.99287520511277" fill="none" stroke="#74cc28" stroke-width="1.0" stroke-dasharray="none" />
<path d="M114.58333333333334,82.5 L121.48021157811179,81.84191909562611 L118.60168723665579,88.14383131459944" fill="#74cc28" />
</g>
<g>
<path d="M239.58333333333334,85.5 Q207.73333333333335,96.5,182.5409494073838,84.99287520511277" fill="none" stroke="#cc2828" stroke-width="1.0" stroke-dasharray="none" />
<path d="M177.08333333333334,82.5 L183.9802115781118,81.84191909562611 L181.1016872366558,88.14383131459944" fill="#cc2828" />
</g>
<g>
<path d="M239.58333333333334,39.5 Q271.4333333333334,28.499999999999993,296.6257172592829,40.007124794887226" fill="none" stroke="#cc2828" stroke-width="1.0" stroke-dasharray="none" />
<path d="M302.08333333333337,42.5 L295.1864550885549,43.15808090437389 L298.0649794300109,36.85616868540056" fill="#cc2828" />
</g>
<g>
<path d="M239.58333333333334,36.5 Q303.28333333333336,14.499999999999993,359.1257172592829,40.007124794887226" fill="none" stroke="#74cc28" stroke-width="1.0" stroke-dasharray="none" />
<path d="M364.58333333333337,42.5 L357.6864550885549,43.15808090437389 L360.5649794300109,36.85616868540056" fill="#74cc28" />
</g>
<g>
<path d="M239.58333333333334,33.5 Q335.1333333333334,0.4999999999999929,421.6257172592829,40.007124794887226" fill="none" stroke="#28bfcc" stroke-width="1.0" stroke-dasharray="none" />
<path d="M427.08333333333337,42.5 L420.1864550885549,43.15808090437389 L423.0649794300109,36.85616868540056" fill="#28bfcc" />
</g>
</svg>