<?xml version="1.0" encoding="UTF-8"?>
<svg xmlns="http://www.w3.org/2000/svg" xmlns:xlink="http://www.w3.org/1999/xlink"
     width="500" height="125.0" viewBox="0 0 500 125.0">
<defs>
</defs>
<path d="M27.5,62.5 L412.5,62.5" stroke="black" stroke-width="2" />
<path d="M27.5,82.5 L27.5,42.5" stroke="black" stroke-width="1.0" />
<path d="M82.5,82.5 L82.5,42.5" stroke="black" stroke-width="1.0" />
<path d="M137.5,82.5 L137.5,42.5" stroke="black" stroke-width="1.0" />
<path d="M192.5,82.5 L192.5,42.5" stroke="black" stroke-width="1.0" />
<path d="M247.5,82.5 L247.5,42.5" stroke="black" stroke-width="1.0" />
<path d="M302.5,82.5 L302.5,42.5" stroke="black" stroke-width="1.0" />
<path d="M357.5,82.5 L357.5,42.5" stroke="black" stroke-width="1.0" />
<path d="M412.5,82.5 L412.5,42.5" stroke="black" stroke-width="1.0" />
<path d="M55.83333333333333,62.5 L40.83333333333333,71.16025403784438 L40.83333333333332,53.83974596215562" fill="red" />
<path d="M110.83333333333333,62.5 L95.83333333333333,71.16025403784438 L95.83333333333333,53.83974596215562" fill="red" />
<path d="M165.83333333333331,62.5 L150.83333333333331,71.16025403784438 L150.83333333333331,53.83974596215562" fill="red" />
<path d="M220.83333333333331,62.5 L205.83333333333331,71.16025403784438 L205.83333333333331,53.83974596215562" fill="red" />
<path d="M275.8333333333333,62.5 L260.8333333333333,71.16025403784438 L260.8333333333333,53.83974596215562" fill="red" />
<path d="M330.8333333333333,62.5 L315.8333333333333,71.16025403784438 L315.8333333333333,53.83974596215562" fill="red" />
<path d="M385.8333333333333,62.5 L370.8333333333333,71.16025403784438 L370.8333333333333,53.83974596215562" fill="red" />
<g>
<path d="M210.83333333333334,91.5 Q126.53333333333335,120.0,52.63486549841896,85.66056327373867" fill="none" stroke="#28bfcc" stroke-width="1.0" stroke-dasharray="none" />
<path d="M45.83333333333334,82.5 L54.45961755530283,81.7336968473246 L50.810113441535094,89.58742970015275" fill="#28bfcc" />
</g>
<g>
<path d="M210.83333333333334,88.5 Q154.63333333333335,107.5,107.63486549841896,85.66056327373867" fill="none" stroke="#74cc28" stroke-width="1.0" stroke-dasharray="none" />
<path d="M100.83333333333334,82.5 L109.45961755530283,81.7336968473246 L105.8101134415351,89.58742970015275" fill="#74cc28" />
</g>
<g>
<path d="M210.83333333333334,85.5 Q182.73333333333335,95.0,162.63486549841897,85.66056327373867" fill="none" stroke="#cc2828" stroke-width="1.0" stroke-dasharray="none" />
<path d="M155.83333333333334,82.5 L164.45961755530283,81.7336968473246 L160.8101134415351,89.58742970015275" fill="#cc2828" />
</g>
<g>
<path d="M210.83333333333334,39.5 Q238.93333333333337,29.999999999999993,259.03180116824774,39.339436726261326" fill="none" stroke="#cc2828" stroke-width="1.0" stroke-dasharray="none" />
<path d="M265.83333333333337,42.5 L257.20704911136386,43.266303152675405 L260.85655322513156,35.412570299847246" fill="#cc2828" />
</g>
<g>
<path d="M210.83333333333334,36.5 Q267.03333333333336,17.499999999999993,314.03180116824774,39.339436726261326" fill="none" stroke="#74cc28" stroke-width="1.0" stroke-dasharray="none" />
<path d="M320.83333333333337,42.5 L312.20704911136386,43.26630315267541 L315.85655322513156,35.412570299847246" fill="#74cc28" />
</g>
<g>
<path d="M210.83333333333334,33.5 Q295.1333333333334,4.999999999999993,369.03180116824774,39.339436726261326" fill="none" stroke="#28bfcc" stroke-width="1.0" stroke-dasharray="none" />
<path d="M375.83333333333337,42.5 L367.20704911136386,43.266303152675405 L370.85655322513156,35.412570299847246" fill="#28bfcc" />
</g>
<g>
<path d="M207.96320759059518,55.57090350616535 A18.10660171779821,18.10660171779821,0,1,0,207.96320759059518,69.42909649383465" fill="none" stroke="#74cc28" stroke-width="1.0" stroke-dasharray="5 1" />
<path d="M210.83333333333334,62.5 L211.96372331655152,71.08616436401262 L203.96269186463886,67.7720286236567" fill="#74cc28" />
</g>
<g>
<path d="M422.5,40.0 L452.5,40.0" fill="none" stroke="#74cc28" stroke-width="1.0" stroke-dasharray="5 1" />
<text x="462.5" y="40.0" font-size="10" fill="black" dominant-baseline="middle">1</text>
<path d="M422.5,55.0 L452.5,55.0" fill="none" stroke="#cc2828" stroke-width="1.0" stroke-dasharray="none" />
<text x="462.5" y="55.0" font-size="10" fill="black" dominant-baseline="middle">2</text>
<path d="M422.5,70.0 L452.5,70.0" fill="none" stroke="#74cc28" stroke-width="1.0" stroke-dasharray="none" />
<text x="462.5" y="70.0" font-size="10" fill="black" dominant-baseline="middle">2</text>
<path d="M422.5,85.0 L452.5,85.0" fill="none" stroke="#28bfcc" stroke-width="1.0" stroke-dasharray="none" />
<text x="462.5" y="85.0" font-size="10" fill="black" dominant-baseline="middle">2</text>
</g>
</svg>