<?xml version="1.0" encoding="UTF-8"?>
<svg xmlns="http://www.w3.org/2000/svg" xmlns:xlink="http://www.w3.org/1999/xlink"
     width="500" height="125.0" viewBox="0 0 500 125.0">
<defs>
</defs>
<path d="M31.25,62.5 L468.75,62.5" stroke="black" stroke-width="2" />
<path d="M31.25,82.5 L31.25,42.5" stroke="black" stroke-width="1.0" />
<path d="M93.75,82.5 L93.75,42.5" stroke="black" stroke-width="1.0" />
<path d="M156.25,82.5 L156.25,42.5" stroke="black" stroke-width="1.0" />
<path d="M218.75,82.5 L218.75,42.5" stroke="black" stroke-width="1.0" />
<path d="M281.25,82.5 L281.25,42.5" stroke="black" stroke-width="1.0" />
<path d="M343.75,82.5 L343.75,42.5" stroke="black" stroke-width="1.0" />
<path d="M406.25,82.5 L406.25,42.5" stroke="black" stroke-width="1.0" />
<path d="M468.75,82.5 L468.75,42.5" stroke="black" stroke-width="1.0" />
<path d="M56.25,75.83333333333333 L56.25,49.166666666666664" stroke="#7dcc7a" stroke-width="1.0" />
<path d="M118.75,75.83333333333333 L118.75,49.166666666666664" stroke="#7dcc7a" stroke-width="1.0" />
<path d="M181.25,75.83333333333333 L181.25,49.166666666666664" stroke="#7dcc7a" stroke-width="1.0" />
<path d="M243.75,75.83333333333333 L243.75,49.166666666666664" stroke="#7dcc7a" stroke-width="1.0" />
<path d="M306.25,75.83333333333333 L306.25,49.166666666666664" stroke="#7dcc7a" stroke-width="1.0" />
<path d="M368.75,75.83333333333333 L368.75,49.166666666666664" stroke="#7dcc7a" stroke-width="1.0" />
<path d="M431.25,75.83333333333333 L431.25,49.166666666666664" stroke="#7dcc7a" stroke-width="1.0" />
<path d="M87.5,75.83333333333333 L87.5,49.166666666666664" stroke="#7aa3cc" stroke-width="1.0" />
<path d="M150.0,75.83333333333333 L150.0,49.166666666666664" stroke="#7aa3cc" stroke-width="1.0" />
<path d="M212.5,75.83333333333333 L212.5,49.166666666666664" stroke="#7aa3cc" stroke-width="1.0" />
<path d="M275.0,75.83333333333333 L275.0,49.166666666666664" stroke="#7aa3cc" stroke-width="1.0" />
<path d="M337.5,75.83333333333333 L337.5,49.166666666666664" stroke="#7aa3cc" stroke-width="1.0" />
<path d="M400.0,75.83333333333333 L400.0,49.166666666666664" stroke="#7aa3cc" stroke-width="1.0" />
<path d="M462.5,75.83333333333333 L462.5,49.166666666666664" stroke="#7aa3cc" stroke-width="1.0" />
<path d="M66.25,62.5 L56.25,72.5 L46.25,62.5 L56.25,52.5" fill="red" />
<path d="M128.75,62.5 L118.75,72.5 L108.75,62.5 L118.75,52.5" fill="red" />
<path d="M191.25,62.5 L181.25,72.5 L171.25,62.5 L181.25,52.5" fill="red" />
<path d="M253.75,62.5 L243.75,72.5 L233.75,62.5 L243.75,52.5" fill="red" />
<path d="M316.25,62.5 L306.25,72.5 L296.25,62.5 L306.25,52.5" fill="red" />
<path d="M378.75,62.5 L368.75,72.5 L358.75,62.5 L368.75,52.5" fill="red" />
<path d="M441.25,62.5 L431.25,72.5 L421.25,62.5 L431.25,52.5" fill="red" />
<g>
<path d="M243.75,85.5 Q275.6,96.5,300.79238392594954,84.99287520511277" fill="none" stroke="#cc2828" stroke-width="1.0" stroke-dasharray="none" />
<path d="M306.25,82.5 L302.23164609667754,88.14383131459944 L299.35312175522154,81.84191909562611" fill="#cc2828" />
</g>
<g>
<path d="M243.75,85.5 Q211.9,96.5,186.70761607405046,84.99287520511277" fill="none" stroke="#cc2828" stroke-width="1.0" stroke-dasharray="none" />
<path d="M181.25,82.5 L188.14687824477846,81.84191909562611 L185.26835390332246,88.14383131459944" fill="#cc2828" />
</g>
<g>
<path d="M243.75,36.5 Q307.45,14.5,363.29238392594954,40.00712479488723" fill="none" stroke="#74cc28" stroke-width="1.0" stroke-dasharray="none" />
<path d="M368.75,42.5 L361.85312175522154,43.15808090437389 L364.73164609667754,36.85616868540056" fill="#74cc28" />
</g>
<g>
<path d="M243.75,36.5 Q180.05,14.5,124.20761607405046,40.007124794887226" fill="none" stroke="#74cc28" stroke-width="1.0" stroke-dasharray="none" />
<path d="M118.75,42.5 L122.76835390332245,36.85616868540056 L125.64687824477846,43.15808090437389" fill="#74cc28" />
</g>
</svg>