<?xml version="1.0" encoding="UTF-8"?>
<svg xmlns="http://www.w3.org/2000/svg" xmlns:xlink="http://www.w3.org/1999/xlink"
     width="500" height="125.0" viewBox="0 0 500 125.0">
<defs>
</defs>
<path d="M31.25,62.5 L468.75,62.5" stroke="black" stroke-width="2" />
<path d="M31.25,82.5 L31.25,42.5" stroke="black" stroke-width="1.0" />
<path d="M93.75,82.5 L93.75,42.5" stroke="black" stroke-width="1.0" />
<path d="M156.25,82.5 L156.25,42.5" stroke="black" stroke-width="1.0" />
<path d="M218.75,82.5 L218.75,42.5" stroke="black" stroke-width="1.0" />
<path d="M281.25,82.5 L281.25,42.5" stroke="black" stroke-width="1.0" />
<path d="M343.75,82.5 L343.75,42.5" stroke="black" stroke-width="1.0" />
<path d="M406.25,82.5 L406.25,42.5" stroke="black" stroke-width="1.0" />
<path d="M468.75,82.5 L468.75,42.5" stroke="black" stroke-width="1.0" />
<path d="M56.25,75.83333333333333 L56.25,49.166666666666664" stroke="#7dcc7a" stroke-width="1.0" />
<path d="M118.75,75.83333333333333 L118.75,49.166666666666664" stroke="#7dcc7a" stroke-width="1.0" />
<path d="M181.25,75.83333333333333 L181.25,49.166666666666664" stroke="#7dcc7a" stroke-width="1.0" />
<path d="M243.75,75.83333333333333 L243.75,49.166666666666664" stroke="#7dcc7a" stroke-width="1.0" />
<path d="M306.25,75.83333333333333 L306.25,49.166666666666664" stroke="#7dcc7a" stroke-width="1.0" />
<path d="M368.75,75.83333333333333 L368.75,49.166666666666664" stroke="#7dcc7a" stroke-width="1.0" />
<path d="M431.25,75.83333333333333 L431.25,49.166666666666664" stroke="#7dcc7a" stroke-width="1.0" />
<path d="M87.5,75.83333333333333 L87.5,49.166666666666664" stroke="#7aa3cc" stroke-width="1.0" />
<path d="M150.0,75.83333333333333 L150.0,49.166666666666664" stroke="#7aa3cc" stroke-width="1.0" />
<path d="M212.5,75.83333333333333 L212.5,49.166666666666664" stroke="#7aa3cc" stroke-width="1.0" />
<path d="M275.0,75.83333333333333 L275.0,49.166666666666664" stroke="#7aa3cc" stroke-width="1.0" />
<path d="M337.5,75.83333333333333 L337.5,49.166666666666664" stroke="#7aa3cc" stroke-width="1.0" />
<path d="M400.0,75.83333333333333 L400.0,49.166666666666664" stroke="#7aa3cc" stroke-width="1.0" />
<path d="M462.5,75.83333333333333 L462.5,49.166666666666664" stroke="#7aa3cc" stroke-width="1.0" />
<path d="M53.75,62.5 L38.75,71.16025403784438 L38.74999999999999,53.83974596215562" fill="red" />
<path d="M58.75,62.5 L73.75,53.83974596215561 L73.75,71.16025403784438" fill="red" />
<path d="M116.25,62.5 L101.25,71.16025403784438 L101.25,53.83974596215562" fill="red" />
<path d="M121.25,62.5 L136.25,53.83974596215561 L136.25,71.16025403784438" fill="red" />
<path d="M178.75,62.5 L163.75,71.16025403784438 L163.75,53.83974596215562" fill="red" />
<path d="M183.75,62.5 L198.75,53.83974596215561 L198.75,71.16025403784438" fill="red" />
<path d="M241.25,62.5 L226.25,71.16025403784438 L226.25,53.83974596215562" fill="red" />
<path d="M246.25,62.5 L261.25,53.83974596215561 L261.25,71.16025403784438" fill="red" />
<path d="M303.75,62.5 L288.75,71.16025403784438 L288.75,53.83974596215562" fill="red" />
<path d="M308.75,62.5 L323.75,53.83974596215561 L323.75,71.16025403784438" fill="red" />
<path d="M366.25,62.5 L351.25,71.16025403784438 L351.25,53.83974596215562" fill="red" />
<path d="M371.25,62.5 L386.25,53.83974596215561 L386.25,71.16025403784438" fill="red" />
<path d="M428.75,62.5 L413.75,71.16025403784438 L413.75,53.83974596215562" fill="red" />
<path d="M433.75,62.5 L448.75,53.83974596215561 L448.75,71.16025403784438" fill="red" />
<g>
<path d="M256.25,36.5 Q192.55,14.5,136.70761607405046,40.007124794887226" fill="none" stroke="#74cc28" stroke-width="1.0" stroke-dasharray="none" />
<path d="M131.25,42.5 L135.26835390332243,36.85616868540056 L138.14687824477846,43.15808090437389" fill="#74cc28" />
</g>
<g>
<path d="M256.25,39.5 Q224.4,28.5,199.20761607405046,40.007124794887226" fill="none" stroke="#cc2828" stroke-width="1.0" stroke-dasharray="none" />
<path d="M193.75,42.5 L197.76835390332243,36.85616868540056 L200.64687824477846,43.15808090437389" fill="#cc2828" />
</g>
<g>
<path d="M256.25,39.5 Q288.1,28.5,313.29238392594954,40.007124794887226" fill="none" stroke="#cc2828" stroke-width="1.0" stroke-dasharray="none" />
<path d="M318.75,42.5 L311.85312175522154,43.15808090437389 L314.73164609667754,36.85616868540056" fill="#cc2828" />
</g>
<g>
<path d="M256.25,36.5 Q319.95,14.5,375.79238392594954,40.00712479488723" fill="none" stroke="#74cc28" stroke-width="1.0" stroke-dasharray="none" />
<path d="M381.25,42.5 L374.35312175522154,43.15808090437389 L377.23164609667754,36.85616868540056" fill="#74cc28" />
</g>
<g>
<path d="M256.25,88.5 Q211.3,103.0,174.15536618719173,85.10423047796547" fill="none" stroke="#cc2828" stroke-width="1.0" stroke-dasharray="5 1" />
<path d="M168.75,82.5 L175.65891935467693,81.9834408547218 L172.65181301970657,88.22502010120911" fill="#cc2828" />
</g>
<g>
<path d="M256.25,84.5 Q243.35,88.5,236.62541871519664,85.16549688356858" fill="none" stroke="#74cc28" stroke-width="1.0" stroke-dasharray="5 1" />
<path d="M231.25,82.5 L238.16434405844905,82.06199744134285 L235.08649337194421,88.2689963257943" fill="#74cc28" />
</g>
<g>
<path d="M256.25,86.5 Q275.8,92.0,288.4469132305818,85.3066475938425" fill="none" stroke="#28bfcc" stroke-width="1.0" stroke-dasharray="5 1" />
<path d="M293.75,82.5 L290.0673319744072,88.36838616770201 L286.8264944867564,82.24490901998296" fill="#28bfcc" />
</g>
<g>
<path d="M256.25,90.5 Q307.85,106.5,350.87458128480336,85.16549688356858" fill="none" stroke="#8e28cc" stroke-width="1.0" stroke-dasharray="5 1" />
<path d="M356.25,82.5 L352.4135066280558,88.2689963257943 L349.33565594155095,82.06199744134285" fill="#8e28cc" />
</g>
</svg>