<?xml version="1.0" encoding="UTF-8"?>
<svg xmlns="http://www.w3.org/2000/svg" xmlns:xlink="http://www.w3.org/1999/xlink"
     width="500" height="125.0" viewBox="0 0 500 125.0">
<defs>
</defs>
<path d="M27.5,62.5 L412.5,62.5" stroke="black" stroke-width="2" />
<path d="M27.5,82.5 L27.5,42.5" stroke="black" stroke-width="1.0" />
<path d="M82.5,82.5 L82.5,42.5" stroke="black" stroke-width="1.0" />
<path d="M137.5,82.5 L137.5,42.5" stroke="black" stroke-width="1.0" />
<path d="M192.5,82.5 L192.5,42.5" stroke="black" stroke-width="1.0" />
<path d="M247.5,82.5 L247.5,42.5" stroke="black" stroke-width="1.0" />
<path d="M302.5,82.5 L302.5,42.5" stroke="black" stroke-width="1.0" />
<path d="M357.5,82.5 L357.5,42.5" stroke="black" stroke-width="1.0" />
<path d="M412.5,82.5 L412.5,42.5" stroke="black" stroke-width="1.0" />
<path d="M49.5,75.83333333333333 L49.5,49.166666666666664" stroke="#7dcc7a" stroke-width="1.0" />
<path d="M104.5,75.83333333333333 L104.5,49.166666666666664" stroke="#7dcc7a" stroke-width="1.0" />
<path d="M159.5,75.83333333333333 L159.5,49.166666666666664" stroke="#7dcc7a" stroke-width="1.0" />
<path d="M214.5,75.83333333333333 L214.5,49.166666666666664" stroke="#7dcc7a" stroke-width="1.0" />
<path d="M269.5,75.83333333333333 L269.5,49.166666666666664" stroke="#7dcc7a" stroke-width="1.0" />
<path d="M324.5,75.83333333333333 L324.5,49.166666666666664" stroke="#7dcc7a" stroke-width="1.0" />
<path d="M379.5,75.83333333333333 L379.5,49.166666666666664" stroke="#7dcc7a" stroke-width="1.0" />
<path d="M77.0,75.83333333333333 L77.0,49.166666666666664" stroke="#7aa3cc" stroke-width="1.0" />
<path d="M132.0,75.83333333333333 L132.0,49.166666666666664" stroke="#7aa3cc" stroke-width="1.0" />
<path d="M187.0,75.83333333333333 L187.0,49.166666666666664" stroke="#7aa3cc" stroke-width="1.0" />
<path d="M242.0,75.83333333333333 L242.0,49.166666666666664" stroke="#7aa3cc" stroke-width="1.0" />
<path d="M297.0,75.83333333333333 L297.0,49.166666666666664" stroke="#7aa3cc" stroke-width="1.0" />
<path d="M352.0,75.83333333333333 L352.0,49.166666666666664" stroke="#7aa3cc" stroke-width="1.0" />
<path d="M407.0,75.83333333333333 L407.0,49.166666666666664" stroke="#7aa3cc" stroke-width="1.0" />
<path d="M59.5,62.5 L49.5,72.5 L39.5,62.5 L49.5,52.5" fill="red" />
<path d="M114.5,62.5 L104.5,72.5 L94.5,62.5 L104.5,52.5" fill="red" />
<path d="M169.5,62.5 L159.5,72.5 L149.5,62.5 L159.5,52.5" fill="red" />
<path d="M224.5,62.5 L214.5,72.5 L204.5,62.5 L214.5,52.5" fill="red" />
<path d="M279.5,62.5 L269.5,72.5 L259.5,62.5 L269.5,52.5" fill="red" />
<path d="M334.5,62.5 L324.5,72.5 L314.5,62.5 L324.5,52.5" fill="red" />
<path d="M389.5,62.5 L379.5,72.5 L369.5,62.5 L379.5,52.5" fill="red" />
<g>
<path d="M214.5,85.5 Q242.6,95.0,262.69846783491437,85.66056327373867" fill="none" stroke="#cc2828" stroke-width="1.0" stroke-dasharray="none" />
<path d="M269.5,82.5 L264.5232198917982,89.58742970015275 L260.8737157780305,81.7336968473246" fill="#cc2828" />
</g>
<g>
<path d="M214.5,85.5 Q186.4,95.0,166.30153216508563,85.66056327373867" fill="none" stroke="#cc2828" stroke-width="1.0" stroke-dasharray="none" />
<path d="M159.5,82.5 L168.12628422196948,81.7336968473246 L164.47678010820175,89.58742970015275" fill="#cc2828" />
</g>
<g>
<path d="M214.5,36.5 Q270.7,17.5,317.69846783491437,39.339436726261326" fill="none" stroke="#74cc28" stroke-width="1.0" stroke-dasharray="none" />
<path d="M324.5,42.5 L315.8737157780305,43.26630315267541 L319.5232198917982,35.412570299847246" fill="#74cc28" />
</g>
<g>
<path d="M214.5,36.5 Q158.3,17.5,111.30153216508562,39.339436726261326" fill="none" stroke="#74cc28" stroke-width="1.0" stroke-dasharray="none" />
<path d="M104.5,42.5 L109.47678010820175,35.412570299847246 L113.12628422196948,43.266303152675405" fill="#74cc28" />
</g>
<g>
<path d="M211.62987425726183,55.57090350616535 A18.10660171779821,18.10660171779821,0,1,0,211.62987425726183,69.42909649383465" fill="none" stroke="#28bfcc" stroke-width="1.0" stroke-dasharray="5 1 1 1" />
<path d="M214.5,62.5 L215.63038998321818,71.08616436401262 L207.6293585313055,67.7720286236567" fill="#28bfcc" />
</g>
<g>
<path d="M422.5,47.5 L452.5,47.5" fill="none" stroke="#28bfcc" stroke-width="1.0" stroke-dasharray="5 1 1 1" />
<text x="462.5" y="47.5" font-size="10" fill="black" dominant-baseline="middle">1</text>
<path d="M422.5,62.5 L452.5,62.5" fill="none" stroke="#cc2828" stroke-width="1.0" stroke-dasharray="none" />
<text x="462.5" y="62.5" font-size="10" fill="black" dominant-baseline="middle">2</text>
<path d="M422.5,77.5 L452.5,77.5" fill="none" stroke="#74cc28" stroke-width="1.0" stroke-dasharray="none" />
<text x="462.5" y="77.5" font-size="10" fill="black" dominant-baseline="middle">2</text>
</g>
</svg>