<?xml version="1.0" encoding="UTF-8"?>
<svg xmlns="http://www.w3.org/2000/svg" xmlns:xlink="http://www.w3.org/1999/xlink"
     width="500" height="400.0" viewBox="0 0 500 400.0">
<defs>
</defs>
<path d="M31.25,25.0 L31.25,375.0" stroke="black" stroke-width="1.0" />
<path d="M157.08333333333331,25.0 L157.08333333333331,375.0" stroke="black" stroke-width="1.0" />
<path d="M282.91666666666663,25.0 L282.91666666666663,375.0" stroke="black" stroke-width="1.0" />
<path d="M408.75,25.0 L408.75,375.0" stroke="black" stroke-width="1.0" />
<path d="M31.25,25.0 L408.75,25.0" stroke="black" stroke-width="1.0" />
<path d="M31.25,141.66666666666669 L408.75,141.66666666666669" stroke="black" stroke-width="1.0" />
<path d="M31.25,258.33333333333337 L408.75,258.33333333333337" stroke="black" stroke-width="1.0" />
<path d="M31.25,375.0 L408.75,375.0" stroke="black" stroke-width="1.0" />
<path d="M31.25,25.0 L31.25,375.0" stroke="#7dcc7a" stroke-width="2" stroke-dasharray="2 2" />
<path d="M94.16666666666666,25.0 L94.16666666666666,375.0" stroke="#7dcc7a" stroke-width="2" stroke-dasharray="2 2" />
<path d="M157.08333333333331,25.0 L157.08333333333331,375.0" stroke="#7dcc7a" stroke-width="2" stroke-dasharray="2 2" />
<path d="M220.0,25.0 L220.0,375.0" stroke="#7dcc7a" stroke-width="2" stroke-dasharray="2 2" />
<path d="M282.91666666666663,25.0 L282.91666666666663,375.0" stroke="#7dcc7a" stroke-width="2" stroke-dasharray="2 2" />
<path d="M345.8333333333333,25.0 L345.8333333333333,375.0" stroke="#7dcc7a" stroke-width="2" stroke-dasharray="2 2" />
<path d="M408.75,25.0 L408.75,375.0" stroke="#7dcc7a" stroke-width="2" stroke-dasharray="2 2" />
<path d="M31.25,54.16666666666667 L408.75,54.16666666666667" stroke="#7aa3cc" stroke-width="2" />
<path d="M31.25,112.50000000000001 L408.75,112.50000000000001" stroke="#7aa3cc" stroke-width="2" />
<path d="M31.25,170.83333333333334 L408.75,170.83333333333334" stroke="#7aa3cc" stroke-width="2" />
<path d="M31.25,229.16666666666666 L408.75,229.16666666666666" stroke="#7aa3cc" stroke-width="2" />
<path d="M31.25,287.50000000000006 L408.75,287.50000000000006" stroke="#7aa3cc" stroke-width="2" />
<path d="M31.25,345.83333333333337 L408.75,345.83333333333337" stroke="#7aa3cc" stroke-width="2" />
<ellipse cx="31.25" cy="25.0" rx="4.194444444444445" ry="8.38888888888889" fill="#cc7ac9" />
<ellipse cx="31.25" cy="83.33333333333334" rx="4.194444444444445" ry="8.38888888888889" fill="#cc7ac9" />
<ellipse cx="31.25" cy="141.66666666666669" rx="4.194444444444445" ry="8.38888888888889" fill="#cc7ac9" />
<ellipse cx="31.25" cy="200.0" rx="4.194444444444445" ry="8.38888888888889" fill="#cc7ac9" />
<ellipse cx="31.25" cy="258.33333333333337" rx="4.194444444444445" ry="8.38888888888889" fill="#cc7ac9" />
<ellipse cx="31.25" cy="316.6666666666667" rx="4.194444444444445" ry="8.38888888888889" fill="#cc7ac9" />
<ellipse cx="31.25" cy="375.0" rx="4.194444444444445" ry="8.38888888888889" fill="#cc7ac9" />
<ellipse cx="94.16666666666666" cy="25.0" rx="4.194444444444445" ry="8.38888888888889" fill="#cc7ac9" />
<ellipse cx="94.16666666666666" cy="83.33333333333334" rx="4.194444444444445" ry="8.38888888888889" fill="#cc7ac9" />
<ellipse cx="94.16666666666666" cy="141.66666666666669" rx="4.194444444444445" ry="8.38888888888889" fill="#cc7ac9" />
<ellipse cx="94.16666666666666" cy="200.0" rx="4.194444444444445" ry="8.38888888888889" fill="#cc7ac9" />
<ellipse cx="94.16666666666666" cy="258.33333333333337" rx="4.194444444444445" ry="8.38888888888889" fill="#cc7ac9" />
<ellipse cx="94.16666666666666" cy="316.6666666666667" rx="4.194444444444445" ry="8.38888888888889" fill="#cc7ac9" />
<ellipse cx="94.16666666666666" cy="375.0" rx="4.194444444444445" ry="8.38888888888889" fill="#cc7ac9" />
<ellipse cx="157.08333333333331" cy="25.0" rx="4.194444444444445" ry="8.38888888888889" fill="#cc7ac9" />
<ellipse cx="157.08333333333331" cy="83.33333333333334" rx="4.194444444444445" ry="8.38888888888889" fill="#cc7ac9" />
<ellipse cx="157.08333333333331" cy="141.66666666666669" rx="4.194444444444445" ry="8.38888888888889" fill="#cc7ac9" />
<ellipse cx="157.08333333333331" cy="200.0" rx="4.194444444444445" ry="8.38888888888889" fill="#cc7ac9" />
<ellipse cx="157.08333333333331" cy="258.33333333333337" rx="4.194444444444445" ry="8.38888888888889" fill="#cc7ac9" />
<ellipse cx="157.08333333333331" cy="316.6666666666667" rx="4.194444444444445" ry="8.38888888888889" fill="#cc7ac9" />
<ellipse cx="157.08333333333331" cy="375.0" rx="4.194444444444445" ry="8.38888888888889" fill="#cc7ac9" />
<ellipse cx="220.0" cy="25.0" rx="4.194444444444445" ry="8.38888888888889" fill="#cc7ac9" />
<ellipse cx="220.0" cy="83.33333333333334" rx="4.194444444444445" ry="8.38888888888889" fill="#cc7ac9" />
<ellipse cx="220.0" cy="141.66666666666669" rx="4.194444444444445" ry="8.38888888888889" fill="#cc7ac9" />
<ellipse cx="220.0" cy="200.0" rx="4.194444444444445" ry="8.38888888888889" fill="#cc7ac9" />
<ellipse cx="220.0" cy="258.33333333333337" rx="4.194444444444445" ry="8.38888888888889" fill="#cc7ac9" />
<ellipse cx="220.0" cy="316.6666666666667" rx="4.194444444444445" ry="8.38888888888889" fill="#cc7ac9" />
<ellipse cx="220.0" cy="375.0" rx="4.194444444444445" ry="8.38888888888889" fill="#cc7ac9" />
<ellipse cx="282.91666666666663" cy="25.0" rx="4.194444444444445" ry="8.38888888888889" fill="#cc7ac9" />
<ellipse cx="282.91666666666663" cy="83.33333333333334" rx="4.194444444444445" ry="8.38888888888889" fill="#cc7ac9" />
<ellipse cx="282.91666666666663" cy="141.66666666666669" rx="4.194444444444445" ry="8.38888888888889" fill="#cc7ac9" />
<ellipse cx="282.91666666666663" cy="200.0" rx="4.194444444444445" ry="8.38888888888889" fill="#cc7ac9" />
<ellipse cx="282.91666666666663" cy="258.33333333333337" rx="4.194444444444445" ry="8.38888888888889" fill="#cc7ac9" />
<ellipse cx="282.91666666666663" cy="316.6666666666667" rx="4.194444444444445" ry="8.38888888888889" fill="#cc7ac9" />
<ellipse cx="282.91666666666663" cy="375.0" rx="4.194444444444445" ry="8.38888888888889" fill="#cc7ac9" />
<ellipse cx="345.8333333333333" cy="25.0" rx="4.194444444444445" ry="8.38888888888889" fill="#cc7ac9" />
<ellipse cx="345.8333333333333" cy="83.33333333333334" rx="4.194444444444445" ry="8.38888888888889" fill="#cc7ac9" />
<ellipse cx="345.8333333333333" cy="141.66666666666669" rx="4.194444444444445" ry="8.38888888888889" fill="#cc7ac9" />
<ellipse cx="345.8333333333333" cy="200.0" rx="4.194444444444445" ry="8.38888888888889" fill="#cc7ac9" />
<ellipse cx="345.8333333333333" cy="258.33333333333337" rx="4.194444444444445" ry="8.38888888888889" fill="#cc7ac9" />
<ellipse cx="345.8333333333333" cy="316.6666666666667" rx="4.194444444444445" ry="8.38888888888889" fill="#cc7ac9" />
<ellipse cx="345.8333333333333" cy="375.0" rx="4.194444444444445" ry="8.38888888888889" fill="#cc7ac9" />
<ellipse cx="408.75" cy="25.0" rx="4.194444444444445" ry="8.38888888888889" fill="#cc7ac9" />
<ellipse cx="408.75" cy="83.33333333333334" rx="4.194444444444445" ry="8.38888888888889" fill="#cc7ac9" />
<ellipse cx="408.75" cy="141.66666666666669" rx="4.194444444444445" ry="8.38888888888889" fill="#cc7ac9" />
<ellipse cx="408.75" cy="200.0" rx="4.194444444444445" ry="8.38888888888889" fill="#cc7ac9" />
<ellipse cx="408.75" cy="258.33333333333337" rx="4.194444444444445" ry="8.38888888888889" fill="#cc7ac9" />
<ellipse cx="408.75" cy="316.6666666666667" rx="4.194444444444445" ry="8.38888888888889" fill="#cc7ac9" />
<ellipse cx="408.75" cy="375.0" rx="4.194444444444445" ry="8.38888888888889" fill="#cc7ac9" />
<path d="M68.41666666666666,54.16666666666667 L50.416666666666664,64.55897151207994 L50.41666666666666,43.77436182125341" fill="red" />
<path d="M119.91666666666666,112.50000000000001 L137.91666666666666,102.10769515458675 L137.91666666666666,122.89230484541328" fill="red" />
<path d="M68.41666666666666,170.83333333333334 L50.416666666666664,181.2256381787466 L50.41666666666666,160.44102848792008" fill="red" />
<path d="M119.91666666666666,229.1666666666667 L137.91666666666666,218.77436182125345 L137.91666666666666,239.55897151207998" fill="red" />
<path d="M68.41666666666666,287.50000000000006 L50.416666666666664,297.8923048454133 L50.41666666666666,277.1076951545868" fill="red" />
<path d="M119.91666666666666,345.8333333333333 L137.91666666666666,335.44102848792005 L137.91666666666666,356.2256381787466" fill="red" />
<path d="M194.24999999999997,54.16666666666667 L176.24999999999997,64.55897151207994 L176.24999999999997,43.77436182125341" fill="red" />
<path d="M245.74999999999994,112.50000000000001 L263.74999999999994,102.10769515458675 L263.74999999999994,122.89230484541328" fill="red" />
<path d="M194.24999999999997,170.83333333333334 L176.24999999999997,181.2256381787466 L176.24999999999997,160.44102848792008" fill="red" />
<path d="M245.74999999999994,229.1666666666667 L263.74999999999994,218.77436182125345 L263.74999999999994,239.55897151207998" fill="red" />
<path d="M194.24999999999997,287.50000000000006 L176.24999999999997,297.8923048454133 L176.24999999999997,277.1076951545868" fill="red" />
<path d="M245.74999999999994,345.8333333333333 L263.74999999999994,335.44102848792005 L263.74999999999994,356.2256381787466" fill="red" />
<path d="M320.0833333333333,54.16666666666667 L302.0833333333333,64.55897151207994 L302.0833333333333,43.77436182125341" fill="red" />
<path d="M371.5833333333333,112.50000000000001 L389.5833333333333,102.10769515458675 L389.5833333333333,122.89230484541328" fill="red" />
<path d="M320.0833333333333,170.83333333333334 L302.0833333333333,181.2256381787466 L302.0833333333333,160.44102848792008" fill="red" />
<path d="M371.5833333333333,229.1666666666667 L389.5833333333333,218.77436182125345 L389.5833333333333,239.55897151207998" fill="red" />
<path d="M320.0833333333333,287.50000000000006 L302.0833333333333,297.8923048454133 L302.0833333333333,277.1076951545868" fill="red" />
<path d="M371.5833333333333,345.8333333333333 L389.5833333333333,335.44102848792005 L389.5833333333333,356.2256381787466" fill="red" />
<g>
<path d="M182.24999999999997,170.83333333333334 Q245.16666666666663,145.66666666666669,301.1197581516939,168.04790326067757" fill="none" stroke="#74cc28" stroke-width="1.0" stroke-dasharray="none" />
<path d="M308.0833333333333,170.83333333333334 L299.5115893494372,172.0683252663193 L302.72792695395054,164.02748125503584" fill="#74cc28" />
</g>
<g>
<path d="M182.24999999999997,170.83333333333334 Q119.33333333333331,145.66666666666669,63.380241848306085,168.04790326067757" fill="none" stroke="#74cc28" stroke-width="1.0" stroke-dasharray="none" />
<path d="M56.41666666666664,170.83333333333334 L61.77207304604939,164.02748125503584 L64.98841065056277,172.06832526631928" fill="#74cc28" />
</g>
<g>
<path d="M182.24999999999997,170.83333333333334 Q208.33333333333334,215.1,250.53655412016087,227.11332827793674" fill="none" stroke="#28bfcc" stroke-width="1.0" stroke-dasharray="none" />
<path d="M257.75,229.16666666666666 L249.35105864869024,231.27801319844664 L251.72204959163147,222.94864335742682" fill="#28bfcc" />
</g>
<g>
<path d="M182.24999999999997,170.83333333333334 Q208.33333333333334,126.56666666666668,250.53655412016087,114.55333838872993" fill="none" stroke="#28bfcc" stroke-width="1.0" stroke-dasharray="none" />
<path d="M257.75,112.5 L251.7220495916315,118.71802330923984 L249.35105864869027,110.38865346822001" fill="#28bfcc" />
</g>
<g>
<path d="M182.24999999999997,170.83333333333334 Q168.74999999999997,131.60000000000002,138.57473445495665,115.9525546087694" fill="none" stroke="#8e28cc" stroke-width="1.0" stroke-dasharray="none" />
<path d="M131.91666666666663,112.5 L140.56806778772156,112.10851737891738 L136.58140112219175,119.79659183862142" fill="#8e28cc" />
</g>
<g>
<path d="M182.24999999999997,170.83333333333334 Q168.74999999999997,210.06666666666666,138.57473445495665,225.7141120578973" fill="none" stroke="#8e28cc" stroke-width="1.0" stroke-dasharray="none" />
<path d="M131.91666666666663,229.16666666666669 L136.58140112219175,221.87007482804526 L140.56806778772156,229.5581492877493" fill="#8e28cc" />
</g>
<g>
<path d="M182.24999999999997,170.83333333333334 L182.24999999999997,280.0" fill="none" stroke="#cc4328" stroke-width="1.0" stroke-dasharray="none" />
<path d="M182.24999999999997,287.5 L177.9198729810778,280.0 L186.58012701892216,280.0" fill="#cc4328" />
</g>
<g>
<path d="M182.24999999999997,170.83333333333334 L182.24999999999997,61.66666666666667" fill="none" stroke="#cc4328" stroke-width="1.0" stroke-dasharray="none" />
<path d="M182.24999999999997,54.16666666666667 L186.58012701892216,61.66666666666667 L177.9198729810778,61.66666666666667" fill="#cc4328" />
</g>
<g>
<path d="M179.3798742572618,163.90423683949868 A18.10660171779821,18.10660171779821,0,1,0,179.3798742572618,177.762429827168" fill="none" stroke="#cc2828" stroke-width="1.0" stroke-dasharray="none" />
<path d="M182.24999999999997,170.83333333333334 L183.38038998321815,179.41949769734595 L175.37935853130548,176.10536195699004" fill="#cc2828" />
</g>
<g>
<path d="M418.75,170.0 L448.75,170.0" fill="none" stroke="#cc2828" stroke-width="1.0" stroke-dasharray="none" />
<text x="458.75" y="170.0" font-size="10" fill="black" dominant-baseline="middle">2</text>
<path d="M418.75,185.0 L448.75,185.0" fill="none" stroke="#74cc28" stroke-width="1.0" stroke-dasharray="none" />
<text x="458.75" y="185.0" font-size="10" fill="black" dominant-baseline="middle">4</text>
<path d="M418.75,200.0 L448.75,200.0" fill="none" stroke="#28bfcc" stroke-width="1.0" stroke-dasharray="none" />
<text x="458.75" y="200.0" font-size="10" fill="black" dominant-baseline="middle">4</text>
<path d="M418.75,215.0 L448.75,215.0" fill="none" stroke="#8e28cc" stroke-width="1.0" stroke-dasharray="none" />
<text x="458.75" y="215.0" font-size="10" fill="black" dominant-baseline="middle">4</text>
<path d="M418.75,230.0 L448.75,230.0" fill="none" stroke="#cc4328" stroke-width="1.0" stroke-dasharray="none" />
<text x="458.75" y="230.0" font-size="10" fill="black" dominant-baseline="middle">4</text>
</g>
</svg>