<?xml version="1.0" encoding="UTF-8"?>
<svg xmlns="http://www.w3.org/2000/svg" xmlns:xlink="http://www.w3.org/1999/xlink"
     width="500" height="400.0" viewBox="0 0 500 400.0">
<defs>
</defs>
<path d="M31.25,25.0 L31.25,375.0" stroke="black" stroke-width="1.0" />
<path d="M177.08333333333334,25.0 L177.08333333333334,375.0" stroke="black" stroke-width="1.0" />
<path d="M322.9166666666667,25.0 L322.9166666666667,375.0" stroke="black" stroke-width="1.0" />
<path d="M468.75,25.0 L468.75,375.0" stroke="black" stroke-width="1.0" />
<path d="M31.25,25.0 L468.75,25.0" stroke="black" stroke-width="1.0" />
<path d="M31.25,141.66666666666669 L468.75,141.66666666666669" stroke="black" stroke-width="1.0" />
<path d="M31.25,258.33333333333337 L468.75,258.33333333333337" stroke="black" stroke-width="1.0" />
<path d="M31.25,375.0 L468.75,375.0" stroke="black" stroke-width="1.0" />
<path d="M31.25,25.0 L31.25,375.0" stroke="#7dcc7a" stroke-width="2" stroke-dasharray="2 2" />
<path d="M104.16666666666667,25.0 L104.16666666666667,375.0" stroke="#7dcc7a" stroke-width="2" stroke-dasharray="2 2" />
<path d="M177.08333333333334,25.0 L177.08333333333334,375.0" stroke="#7dcc7a" stroke-width="2" stroke-dasharray="2 2" />
<path d="M250.0,25.0 L250.0,375.0" stroke="#7dcc7a" stroke-width="2" stroke-dasharray="2 2" />
<path d="M322.9166666666667,25.0 L322.9166666666667,375.0" stroke="#7dcc7a" stroke-width="2" stroke-dasharray="2 2" />
<path d="M395.83333333333337,25.0 L395.83333333333337,375.0" stroke="#7dcc7a" stroke-width="2" stroke-dasharray="2 2" />
<path d="M468.75,25.0 L468.75,375.0" stroke="#7dcc7a" stroke-width="2" stroke-dasharray="2 2" />
<path d="M31.25,54.16666666666667 L468.75,54.16666666666667" stroke="#7aa3cc" stroke-width="2" />
<path d="M31.25,112.50000000000001 L468.75,112.50000000000001" stroke="#7aa3cc" stroke-width="2" />
<path d="M31.25,170.83333333333334 L468.75,170.83333333333334" stroke="#7aa3cc" stroke-width="2" />
<path d="M31.25,229.16666666666666 L468.75,229.16666666666666" stroke="#7aa3cc" stroke-width="2" />
<path d="M31.25,287.50000000000006 L468.75,287.50000000000006" stroke="#7aa3cc" stroke-width="2" />
<path d="M31.25,345.83333333333337 L468.75,345.83333333333337" stroke="#7aa3cc" stroke-width="2" />
<ellipse cx="31.25" cy="25.0" rx="4.861111111111112" ry="9.722222222222223" fill="#cc7ac9" />
<ellipse cx="31.25" cy="83.33333333333334" rx="4.861111111111112" ry="9.722222222222223" fill="#cc7ac9" />
<ellipse cx="31.25" cy="141.66666666666669" rx="4.861111111111112" ry="9.722222222222223" fill="#cc7ac9" />
<ellipse cx="31.25" cy="200.0" rx="4.861111111111112" ry="9.722222222222223" fill="#cc7ac9" />
<ellipse cx="31.25" cy="258.33333333333337" rx="4.861111111111112" ry="9.722222222222223" fill="#cc7ac9" />
<ellipse cx="31.25" cy="316.6666666666667" rx="4.861111111111112" ry="9.722222222222223" fill="#cc7ac9" />
<ellipse cx="31.25" cy="375.0" rx="4.861111111111112" ry="9.722222222222223" fill="#cc7ac9" />
<ellipse cx="104.16666666666667" cy="25.0" rx="4.861111111111112" ry="9.722222222222223" fill="#cc7ac9" />
<ellipse cx="104.16666666666667" cy="83.33333333333334" rx="4.861111111111112" ry="9.722222222222223" fill="#cc7ac9" />
<ellipse cx="104.16666666666667" cy="141.66666666666669" rx="4.861111111111112" ry="9.722222222222223" fill="#cc7ac9" />
<ellipse cx="104.16666666666667" cy="200.0" rx="4.861111111111112" ry="9.722222222222223" fill="#cc7ac9" />
<ellipse cx="104.16666666666667" cy="258.33333333333337" rx="4.861111111111112" ry="9.722222222222223" fill="#cc7ac9" />
<ellipse cx="104.16666666666667" cy="316.6666666666667" rx="4.861111111111112" ry="9.722222222222223" fill="#cc7ac9" />
<ellipse cx="104.16666666666667" cy="375.0" rx="4.861111111111112" ry="9.722222222222223" fill="#cc7ac9" />
<ellipse cx="177.08333333333334" cy="25.0" rx="4.861111111111112" ry="9.722222222222223" fill="#cc7ac9" />
<ellipse cx="177.08333333333334" cy="83.33333333333334" rx="4.861111111111112" ry="9.722222222222223" fill="#cc7ac9" />
<ellipse cx="177.08333333333334" cy="141.66666666666669" rx="4.861111111111112" ry="9.722222222222223" fill="#cc7ac9" />
<ellipse cx="177.08333333333334" cy="200.0" rx="4.861111111111112" ry="9.722222222222223" fill="#cc7ac9" />
<ellipse cx="177.08333333333334" cy="258.33333333333337" rx="4.861111111111112" ry="9.722222222222223" fill="#cc7ac9" />
<ellipse cx="177.08333333333334" cy="316.6666666666667" rx="4.861111111111112" ry="9.722222222222223" fill="#cc7ac9" />
<ellipse cx="177.08333333333334" cy="375.0" rx="4.861111111111112" ry="9.722222222222223" fill="#cc7ac9" />
<ellipse cx="250.0" cy="25.0" rx="4.861111111111112" ry="9.722222222222223" fill="#cc7ac9" />
<ellipse cx="250.0" cy="83.33333333333334" rx="4.861111111111112" ry="9.722222222222223" fill="#cc7ac9" />
<ellipse cx="250.0" cy="141.66666666666669" rx="4.861111111111112" ry="9.722222222222223" fill="#cc7ac9" />
<ellipse cx="250.0" cy="200.0" rx="4.861111111111112" ry="9.722222222222223" fill="#cc7ac9" />
<ellipse cx="250.0" cy="258.33333333333337" rx="4.861111111111112" ry="9.722222222222223" fill="#cc7ac9" />
<ellipse cx="250.0" cy="316.6666666666667" rx="4.861111111111112" ry="9.722222222222223" fill="#cc7ac9" />
<ellipse cx="250.0" cy="375.0" rx="4.861111111111112" ry="9.722222222222223" fill="#cc7ac9" />
<ellipse cx="322.9166666666667" cy="25.0" rx="4.861111111111112" ry="9.722222222222223" fill="#cc7ac9" />
<ellipse cx="322.9166666666667" cy="83.33333333333334" rx="4.861111111111112" ry="9.722222222222223" fill="#cc7ac9" />
<ellipse cx="322.9166666666667" cy="141.66666666666669" rx="4.861111111111112" ry="9.722222222222223" fill="#cc7ac9" />
<ellipse cx="322.9166666666667" cy="200.0" rx="4.861111111111112" ry="9.722222222222223" fill="#cc7ac9" />
<ellipse cx="322.9166666666667" cy="258.33333333333337" rx="4.861111111111112" ry="9.722222222222223" fill="#cc7ac9" />
<ellipse cx="322.9166666666667" cy="316.6666666666667" rx="4.861111111111112" ry="9.722222222222223" fill="#cc7ac9" />
<ellipse cx="322.9166666666667" cy="375.0" rx="4.861111111111112" ry="9.722222222222223" fill="#cc7ac9" />
<ellipse cx="395.83333333333337" cy="25.0" rx="4.861111111111112" ry="9.722222222222223" fill="#cc7ac9" />
<ellipse cx="395.83333333333337" cy="83.33333333333334" rx="4.861111111111112" ry="9.722222222222223" fill="#cc7ac9" />
<ellipse cx="395.83333333333337" cy="141.66666666666669" rx="4.861111111111112" ry="9.722222222222223" fill="#cc7ac9" />
<ellipse cx="395.83333333333337" cy="200.0" rx="4.861111111111112" ry="9.722222222222223" fill="#cc7ac9" />
<ellipse cx="395.83333333333337" cy="258.33333333333337" rx="4.861111111111112" ry="9.722222222222223" fill="#cc7ac9" />
<ellipse cx="395.83333333333337" cy="316.6666666666667" rx="4.861111111111112" ry="9.722222222222223" fill="#cc7ac9" />
<ellipse cx="395.83333333333337" cy="375.0" rx="4.861111111111112" ry="9.722222222222223" fill="#cc7ac9" />
<ellipse cx="468.75" cy="25.0" rx="4.861111111111112" ry="9.722222222222223" fill="#cc7ac9" />
<ellipse cx="468.75" cy="83.33333333333334" rx="4.861111111111112" ry="9.722222222222223" fill="#cc7ac9" />
<ellipse cx="468.75" cy="141.66666666666669" rx="4.861111111111112" ry="9.722222222222223" fill="#cc7ac9" />
<ellipse cx="468.75" cy="200.0" rx="4.861111111111112" ry="9.722222222222223" fill="#cc7ac9" />
<ellipse cx="468.75" cy="258.33333333333337" rx="4.861111111111112" ry="9.722222222222223" fill="#cc7ac9" />
<ellipse cx="468.75" cy="316.6666666666667" rx="4.861111111111112" ry="9.722222222222223" fill="#cc7ac9" />
<ellipse cx="468.75" cy="375.0" rx="4.861111111111112" ry="9.722222222222223" fill="#cc7ac9" />
<path d="M72.41666666666667,54.16666666666667 L54.41666666666667,64.55897151207994 L54.416666666666664,43.77436182125341" fill="red" />
<path d="M135.91666666666669,112.50000000000001 L153.91666666666669,102.10769515458675 L153.91666666666669,122.89230484541328" fill="red" />
<path d="M72.41666666666667,170.83333333333334 L54.41666666666667,181.2256381787466 L54.416666666666664,160.44102848792008" fill="red" />
<path d="M135.91666666666669,229.1666666666667 L153.91666666666669,218.77436182125345 L153.91666666666669,239.55897151207998" fill="red" />
<path d="M72.41666666666667,287.50000000000006 L54.41666666666667,297.8923048454133 L54.416666666666664,277.1076951545868" fill="red" />
<path d="M135.91666666666669,345.8333333333333 L153.91666666666669,335.44102848792005 L153.91666666666669,356.2256381787466" fill="red" />
<path d="M218.25,54.16666666666667 L200.25,64.55897151207994 L200.25,43.77436182125341" fill="red" />
<path d="M281.75,112.50000000000001 L299.75,102.10769515458675 L299.75,122.89230484541328" fill="red" />
<path d="M218.25,170.83333333333334 L200.25,181.2256381787466 L200.25,160.44102848792008" fill="red" />
<path d="M281.75,229.1666666666667 L299.75,218.77436182125345 L299.75,239.55897151207998" fill="red" />
<path d="M218.25,287.50000000000006 L200.25,297.8923048454133 L200.25,277.1076951545868" fill="red" />
<path d="M281.75,345.8333333333333 L299.75,335.44102848792005 L299.75,356.2256381787466" fill="red" />
<path d="M364.08333333333337,54.16666666666667 L346.08333333333337,64.55897151207994 L346.08333333333337,43.77436182125341" fill="red" />
<path d="M427.5833333333333,112.50000000000001 L445.5833333333333,102.10769515458675 L445.5833333333333,122.89230484541328" fill="red" />
<path d="M364.08333333333337,170.83333333333334 L346.08333333333337,181.2256381787466 L346.08333333333337,160.44102848792008" fill="red" />
<path d="M427.5833333333333,229.1666666666667 L445.5833333333333,218.77436182125345 L445.5833333333333,239.55897151207998" fill="red" />
<path d="M364.08333333333337,287.50000000000006 L346.08333333333337,297.8923048454133 L346.08333333333337,277.1076951545868" fill="red" />
<path d="M427.5833333333333,345.8333333333333 L445.5833333333333,335.44102848792005 L445.5833333333333,356.2256381787466" fill="red" />
<g>
<path d="M206.25,170.83333333333334 Q279.1666666666667,141.66666666666666,346.51247318802183,168.6049892752087" fill="none" stroke="#74cc28" stroke-width="1.0" stroke-dasharray="none" />
<path d="M352.08333333333337,170.83333333333334 L345.22593814621644,171.8213268797221 L347.79900822982717,165.38865167069534" fill="#74cc28" />
</g>
<g>
<path d="M206.25,170.83333333333334 Q133.33333333333331,141.66666666666669,65.98752681197821,168.6049892752087" fill="none" stroke="#74cc28" stroke-width="1.0" stroke-dasharray="none" />
<path d="M60.41666666666665,170.83333333333334 L64.70099177017285,165.38865167069534 L67.27406185378356,171.8213268797221" fill="#74cc28" />
</g>
<g>
<path d="M206.25,170.83333333333334 Q238.33333333333337,217.5,287.87870129007956,227.93060378036762" fill="none" stroke="#28bfcc" stroke-width="1.0" stroke-dasharray="none" />
<path d="M293.75000000000006,229.16666666666666 L287.1650600499395,231.3203996710329 L288.5923425302196,224.5408078897023" fill="#28bfcc" />
</g>
<g>
<path d="M206.25,170.83333333333334 Q238.33333333333337,124.16666666666667,287.87870129007956,113.73606288629905" fill="none" stroke="#28bfcc" stroke-width="1.0" stroke-dasharray="none" />
<path d="M293.75000000000006,112.5 L288.5923425302196,117.12585877696435 L287.1650600499395,110.34626699563375" fill="#28bfcc" />
</g>
<g>
<path d="M206.25,170.83333333333334 Q188.74999999999997,130.00000000000003,153.431536846775,114.86351579147501" fill="none" stroke="#8e28cc" stroke-width="1.0" stroke-dasharray="none" />
<path d="M147.91666666666666,112.5 L154.79611332521702,111.67950400844362 L152.06696036833299,118.0475275745064" fill="#8e28cc" />
</g>
<g>
<path d="M206.25,170.83333333333334 Q188.74999999999997,211.66666666666666,153.431536846775,226.80315087519168" fill="none" stroke="#8e28cc" stroke-width="1.0" stroke-dasharray="none" />
<path d="M147.91666666666666,229.16666666666669 L152.06696036833296,223.61913909216028 L154.79611332521702,229.98716265822307" fill="#8e28cc" />
</g>
<g>
<path d="M206.25,170.83333333333334 L206.25,281.5" fill="none" stroke="#cc4328" stroke-width="1.0" stroke-dasharray="none" />
<path d="M206.25,287.5 L202.78589838486224,281.5 L209.71410161513776,281.5" fill="#cc4328" />
</g>
<g>
<path d="M206.25,170.83333333333334 L206.25,60.16666666666667" fill="none" stroke="#cc4328" stroke-width="1.0" stroke-dasharray="none" />
<path d="M206.25,54.16666666666667 L209.71410161513776,60.16666666666667 L202.78589838486224,60.16666666666667" fill="#cc4328" />
</g>
<g>
<path d="M203.42157287525382,168.00490620858716 c-16.970562748477143,-16.97056274847714,-16.970562748477143,16.97056274847714,-2.121320343559643,10.606601717798211" fill="none" stroke="black" stroke-width="1.0" stroke-dasharray="none" />
<path d="M206.0073593128807,175.07597402045263 L200.0073593128807,178.5400756355904 L200.0073593128807,171.61187240531487" fill="black" />
</g>
</svg>